/* XPM */
static char *istockphoto_1152042330_612x612_removebg_preview__1___1_1678731010[] = {
/* columns rows colors chars-per-pixel */
"64 64 102 2 ",
"   c None",
".  c #7E725D",
"X  c #787260",
"o  c #7E7A66",
"O  c #82745E",
"+  c #827561",
"@  c #857A67",
"#  c #857A6A",
"$  c #897D6D",
"%  c #86806E",
"&  c #8D836F",
"*  c #898473",
"=  c #968774",
"-  c #948973",
";  c #9A8D75",
":  c #938A78",
">  c #9A8C79",
",  c #9A9077",
"<  c #92907A",
"1  c #A0957D",
"2  c #AE9D7B",
"3  c #B29E7C",
"4  c #B2A17F",
"5  c #999582",
"6  c #9F9984",
"7  c #A49781",
"8  c #A49C87",
"9  c #A7A087",
"0  c #A4A089",
"q  c #ABA68E",
"w  c #B4A583",
"e  c #B9A686",
"r  c #B6A986",
"t  c #BAA987",
"y  c #BDA789",
"u  c #B7AA89",
"i  c #BAAB8A",
"p  c #BCB08E",
"a  c #AEA790",
"s  c #ADA994",
"d  c #B0A790",
"f  c #B6B296",
"g  c #BDB392",
"h  c #B6B198",
"j  c #BAB59B",
"k  c #BDB89E",
"l  c #C1AE8E",
"z  c #C1B28E",
"x  c #C4AF90",
"c  c #C5B493",
"v  c #C9B596",
"b  c #C4B896",
"n  c #C9B997",
"m  c #C1B59A",
"M  c #C9B698",
"N  c #C5BB9B",
"B  c #CCBA9B",
"V  c #D1BD9E",
"C  c #C4BEA2",
"Z  c #D3BEA1",
"A  c #C5C1A3",
"S  c #CAC4A4",
"D  c #C4C3A9",
"F  c #CCC7A9",
"G  c #CDC9AA",
"H  c #D5C2A4",
"J  c #D9C4A6",
"K  c #D7C6A9",
"L  c #DBC6AA",
"P  c #D2CDAD",
"I  c #DECAAD",
"U  c #D4D1AF",
"Y  c #D8D1AE",
"T  c #CBC8B2",
"R  c #D3CFB2",
"E  c #DFCEB0",
"W  c #D5D4B3",
"Q  c #D9D5B5",
"!  c #D7D8B7",
"~  c #DDD8B7",
"^  c #D6D6B8",
"/  c #D7D8B9",
"(  c #DCDCBC",
")  c #E0CBAE",
"_  c #E3CEB3",
"`  c #E6D1B6",
"'  c #E9D3B5",
"]  c #E7D2B8",
"[  c #EFD7B9",
"{  c #E1DEBC",
"}  c #F2DBBE",
"|  c #DEE0BF",
" . c #DCDFC0",
".. c #E0DFC0",
"X. c #F5DEC1",
"o. c #DEE2C3",
"O. c #E1E4C5",
"+. c #E9E8C7",
"@. c #E2E7C8",
"#. c #E4E9CA",
"$. c #E9EBCA",
"%. c #EEF1CE",
/* pixels */
"                                                                                                                                ",
"                                                                                                                                ",
"                                                                                                                                ",
"                                                                                                                                ",
"                                                                                                                                ",
"                                                                                                                                ",
"                                                                                                                                ",
"                                                                                                                                ",
"                                                                                                                                ",
"                                                                                                                                ",
"                                                                                                                                ",
"                                                                                                                                ",
"                                                                                                                                ",
"                                                              5 C h                                                             ",
"                                                        s G ~ | ( / { W k *                                                     ",
"                                                * k W { ~ | o.o.O.O. .( ~ ( ~ C <                                               ",
"                                          7 A ~ | | | o.o.o.o.O.O.o.o.O.o.o.| | ~ / S 5                                         ",
"                                    a P ~ O.(  .o.o.o.o.o.o.o.o.o.o.o.o.o.o.o.o.o. .( o.~ G 0                                   ",
"                            - k Q ~ | | o.o.o.O.o.o.o.o.o.o.o.o.o.o.o.o.o.o.o.o.o.o.o.o.o.( ( ~ P q                             ",
"                      0 F { O.O.O.O.O.O.o.O.o.O.#.o.o.o.o.@.@.o.O.O.O.O.O.O.o.o.O.O.o.o.@.@.o.o.O.| ..W j %                     ",
"              o f F P Y W W W W W W W W ^ ^ W ^ W ^ W ^ W W W W ^ W W W ^ W W W ^ ^ W W W W W W W ^ W W P P U j *               ",
"            8 Y G G S S S S S A S S S S S S S S S S S S S S S S S S S S S S S S G S S S S S S S S S S S S S S P P 5             ",
"              @.( ( ( @.~ ( o.o.( ( O.( ( o.| | | o. .( o.( ( | o.| | O.( ( o.| | ( o.| ( O.( ( O.( ( ( O.( ( O.!               ",
"              / U ^ W ^ W ! W W ! W W W ^ W W ! W W W W W W ^ W W ! W W W W W W ! U W ^ W ^ W ^ W U / W ^ W W ^ R               ",
"          D +.^ G W W G W ^ P U ^ P P W ^ P G ! W P W U R R ^ U P ^ W P U W P P ^ W G W W G P W P U ^ R G W ^ G R @.T           ",
"              - N g p I ) ) I I g g g c I ) E I Y B g g i J I I I Y V p b u Z ~ I I E I g g g c Q I L _ Q c p b i               ",
"                N i i ' _ _ _ ` B i u v ] _ ` _ _ J i g l _ _ _ ` ` L i g i I ` _ _ _ ` B i i B ' _ _ _ ` Z i n #               ",
"                u 2 y ] _ _ _ ] V w 2 c ' _ _ _ ` I w 4 e ' _ _ ` ) ` r 4 3 I ` _ _ _ ` B w 2 M _ _ _ _ _ J 4 t o               ",
"                i w y ` _ _ _ _ V w 4 c ' _ _ _ _ L u w e _ _ ` _ ` _ t r 4 ) ` _ _ _ ] B w 3 v ] _ _ _ ` J w p +               ",
"                i w y ' _ _ _ ` V w 4 c ] _ _ _ ' L u w e ` _ _ _ _ _ t r 4 ) _ _ _ _ ] B w w M ] _ _ _ _ H w i +               ",
"                b w y _ _ _ _ ] B r 4 c ] _ _ _ ` L r r e _ _ _ _ _ ) t u 3 ) _ _ _ _ ] B e 3 v ` _ _ _ ` H w l +               ",
"                b w u ` _ _ _ _ B r 4 c ] _ _ _ ` J r w e _ _ _ _ ` ) t r w I ` _ _ _ ] M e w v ] _ _ _ ` H w z +               ",
"                c w i _ _ _ _ ] B w w v ] _ _ _ ` L r u e ` _ _ _ _ ) r r w ) _ _ _ _ ` M y w v _ _ _ _ ` Z w z O               ",
"                c w l ] _ _ _ _ B e w x ] _ _ _ _ J r u e _ _ _ _ ` ) u u e ) _ _ _ _ ` M r w v ] _ _ _ ` H w z O               ",
"                c r i _ _ _ _ ] M r w c ] _ _ _ ' J u t r _ _ _ _ _ I u y w ) _ _ _ _ ' M r r v _ _ _ _ ` Z w p O               ",
"                c r t _ _ _ _ ' B r w c ` E _ _ _ J r u e _ _ _ _ ` I u u w ) _ _ _ _ ` M r r c ] _ _ _ ` Z w c O               ",
"                c r u _ _ _ _ ` M u w v ] _ _ _ ` J r r y _ _ _ E ` I e i w _ _ _ _ _ ] M i w v ] _ _ _ _ Z w g .               ",
"                b r t _ _ _ _ ` n u w c ` _ _ _ ` J r i e _ _ _ _ ` L i i w I _ _ _ _ _ M i w v ` _ _ _ _ V r c .               ",
"                B r i _ _ _ _ ` B t r c ] _ _ _ ` J r i u _ _ _ _ ` I e i w I _ _ _ _ ` b u r c ] _ _ _ ` Z w c O               ",
"                B w l _ _ _ _ ` v u r c ] _ _ E _ J i i u _ _ _ _ ` I y p w I ` _ _ _ ` b u e v ] _ _ _ ` Z r p ;               ",
"                n u i _ _ _ _ _ n u r c ] _ _ _ ` H r i u _ _ _ _ ` K y i r I ` _ _ _ ` b i e v ` _ _ _ ] B u z ,               ",
"                n r i ` ` _ _ ` B i i c ` _ _ _ ` H u p u _ ` _ _ ` K i p r L ` _ _ _ _ b i i b ` _ _ _ ] B u b ,               ",
"                c r y _ _ _ _ ` c r u c ` _ _ _ ] Z w u e E _ _ E ` K w i w L ` _ _ _ ` c e w c ` _ _ _ ` B r p ;               ",
"              0 S N b J ' _ _ L b N N b E _ _ _ _ B N C b J _ _ _ ` Z N N m H ` _ _ ` L N N N M ) _ _ ` ) N N B m               ",
"              t r r w c ` _ ' v w r y w Z ] _ ` J w y y w l _ _ _ I w r u w i ` ` _ ` v w u i w H ` _ ` V 4 u w z               ",
"              k W G A Z ` _ ` V C F F N Z ` _ ` L N G G S V _ _ _ E N F F F M _ _ _ ` V C S S N J ` _ ` J N F S P               ",
"              A $.@.o.H _ ) _ J ( #.#.( Z E I _ I Q #.@.O.K _ ) _ I R #.@.@.L E I _ _ K  .@.#./ J E ) _ J / #.@.O.              ",
"              D +.o./ ) X.} X.) / O.O.W ] X.X.X.[ W o.o.( I X.} X.[ L o.o. .I X.} } X.I / O.O.W ' X.} X.' W O.o...              ",
"              C #.o.O.1 @ $ # > ( O.O.Q = # $ $ $ F @.o.O.1 @ & $ # C #.o.+.d # $ $ # 1 o.o.o.R * $ $ $ = / O.O...              ",
"              C O.( +.          O.| O.W           k +./ $.          s $./ %.            +.o.@.F           / O.( ..              ",
"              P A C P X         P C C P           P A C P &         N A C G 8         % G N A K           P N C P               ",
"                                                                                                                                ",
"                                                                                                                                ",
"                                                                                                                                ",
"                                                                                                                                ",
"                                                                                                                                ",
"                                                                                                                                ",
"                                                                                                                                ",
"                                                                                                                                ",
"                                                                                                                                ",
"                                                                                                                                ",
"                                                                                                                                ",
"                                                                                                                                ",
"                                                                                                                                "
};
