/* XPM */
static char *_ed82d3a9a5af013689f70512c3526441678731076[] = {
/* columns rows colors chars-per-pixel */
"64 64 231 2 ",
"   c #030202",
".  c #0B0202",
"X  c #0C0B0C",
"o  c #080807",
"O  c #140401",
"+  c #120C0C",
"@  c #190806",
"#  c #0D110B",
"$  c #17140B",
"%  c #0C0C13",
"&  c #0A0815",
"*  c #120D15",
"=  c #0D1315",
"-  c #141314",
";  c #1A1515",
":  c #1B151B",
">  c #1B1B1C",
",  c #161919",
"<  c #260C06",
"1  c #27150A",
"2  c #221C1D",
"3  c #281816",
"4  c #341911",
"5  c #1C211B",
"6  c #26241B",
"7  c #37241B",
"8  c #1B1B23",
"9  c #181725",
"0  c #161528",
"q  c #231D26",
"w  c #221E31",
"e  c #1D2326",
"r  c #1D2133",
"t  c #232424",
"y  c #2A2A24",
"u  c #24242B",
"i  c #24292B",
"p  c #2B2B2B",
"a  c #292626",
"s  c #352927",
"d  c #2B3328",
"f  c #35362C",
"g  c #242432",
"h  c #2C2C33",
"j  c #2D2C3A",
"k  c #282734",
"l  c #342D37",
"z  c #2C3236",
"x  c #343434",
"c  c #3C3534",
"v  c #33353B",
"b  c #3B3C3C",
"n  c #373938",
"m  c #4D1B0E",
"M  c #532816",
"N  c #4C2B18",
"B  c #63321B",
"V  c #482C25",
"C  c #562D26",
"Z  c #483429",
"A  c #57372A",
"S  c #473835",
"D  c #553C36",
"F  c #402F35",
"G  c #67382A",
"H  c #673931",
"J  c #3A4537",
"K  c #39422E",
"L  c #45473A",
"P  c #594438",
"I  c #48523C",
"U  c #52432B",
"Y  c #664739",
"T  c #794532",
"R  c #6E4F34",
"E  c #6B512E",
"W  c #3B3C43",
"Q  c #373746",
"!  c #313246",
"~  c #413D44",
"^  c #453D47",
"/  c #3D4344",
"(  c #44434B",
")  c #4B4C4C",
"_  c #454745",
"`  c #564847",
"'  c #4B5647",
"]  c #55594B",
"[  c #4A4C53",
"{  c #474752",
"}  c #544D56",
"|  c #4D5257",
" . c #525355",
".. c #53545B",
"X. c #595A58",
"o. c #674C46",
"O. c #665646",
"+. c #765947",
"@. c #645D5B",
"#. c #714B42",
"$. c #56634C",
"%. c #5B6556",
"&. c #65685C",
"*. c #6F6C58",
"=. c #595A64",
"-. c #665D64",
";. c #5D6465",
":. c #686868",
">. c #6A7466",
",. c #75756B",
"<. c #696A73",
"1. c #6D7675",
"2. c #777778",
"3. c #746B6D",
"4. c #86583A",
"5. c #876B56",
"6. c #98785A",
"7. c #8E6C4E",
"8. c #A87B55",
"9. c #987A65",
"0. c #847B79",
"q. c #937C77",
"w. c #9F6F57",
"e. c #7C8576",
"r. c #B4855E",
"t. c #84847B",
"y. c #9B8673",
"u. c #99836D",
"i. c #A6866A",
"p. c #A78A77",
"a. c #B89779",
"s. c #AF9271",
"d. c #C19672",
"f. c #C3A27F",
"g. c #797B84",
"h. c #827F87",
"j. c #7D8285",
"k. c #858484",
"l. c #8B8B8B",
"z. c #898785",
"x. c #928D8B",
"c. c #96968A",
"v. c #9C9B9C",
"b. c #969796",
"n. c #8D9190",
"m. c #B69B87",
"M. c #A7988E",
"N. c #9DA29A",
"B. c #B9A38A",
"V. c #A6A59A",
"C. c #B4A89B",
"Z. c #BBBA9E",
"A. c #9A9BA4",
"S. c #A49EA4",
"D. c #9EA4A6",
"F. c #A4A3A3",
"G. c #ABABA4",
"H. c #ADACAC",
"J. c #A7A6A9",
"K. c #B2ACA9",
"L. c #ADB3A9",
"P. c #B3B3AC",
"I. c #B8B7A9",
"U. c #ADACB2",
"Y. c #A8A9B4",
"T. c #B2AEB3",
"R. c #AFB3B4",
"E. c #B4B3B4",
"W. c #BBBBB4",
"Q. c #B5B4BB",
"!. c #BAB6BA",
"~. c #BCBBBB",
"^. c #B8B7B6",
"/. c #C6AA8E",
"(. c #C8BDAA",
"). c #C2BDB9",
"_. c #D4BCB2",
"`. c #BCC3BA",
"'. c #C4C3BD",
"]. c #C8C6B9",
"[. c #D7C9B8",
"{. c #D4C6AC",
"}. c #E9D5BD",
"|. c #BDBCC3",
" X c #BCB9C8",
".X c #C1BDC2",
"XX c #BCC4C4",
"oX c #C4C3C4",
"OX c #C9C4C4",
"+X c #CBCBC4",
"@X c #C4C4CA",
"#X c #C9C6CB",
"$X c #CCCBCB",
"%X c #C5C9C6",
"&X c #D2CDCC",
"*X c #D5CBC4",
"=X c #CCD1C9",
"-X c #D3D2CD",
";X c #D6D5C7",
":X c #CCCCD3",
">X c #C9C7D3",
",X c #D2CED3",
"<X c #CED4DA",
"1X c #D4D3D4",
"2X c #D9D5D4",
"3X c #DBDAD4",
"4X c #D4D4DB",
"5X c #DBD6DC",
"6X c #DCDBDC",
"7X c #D5DAD8",
"8X c #E7DAC8",
"9X c #E5DBD8",
"0X c #E4CEC3",
"qX c #DBE1D9",
"wX c #E5E4DC",
"eX c #F8ECDA",
"rX c #DDDCE2",
"tX c #DAD9E5",
"yX c #E2DEE4",
"uX c #E2DBE6",
"iX c #DDE2E4",
"pX c #E4E4E3",
"aX c #E4E4EB",
"sX c #EBEBEB",
"dX c #E9E8E7",
"fX c #F5F4EC",
"gX c #EAEBF4",
"hX c #F3F4F4",
"jX c #FCFCFD",
"kX c #F7F7F8",
"lX c #F0EDEE",
/* pixels */
"a > - a t ; 2 - - X q p : * ; - X o , X , + - - , % > X p % = i , X = # = e = = = i i z z j : 9 s 7 : q 9 w ! 0 g 8 > p : + 2 . ",
">   a a X   o q :   o . . + > ; a > 6 p _ p 6 _ h > = % x ( v b p / ' e e d z e e e ! ..=./ u l c q : 9 j Q ..Q q q 6 p c 2 + + ",
"- : b.2.:.l.k.3.b.b.b.n.H.~.$XoX6XOX!.#X1X$X~.hX7X#X!.%XoXrX1X6X1XpXdX7XaXXXXXXX:X<X1X1XrX4X1X1XOXOXJ..X XrXaX4X:X6X).'.*Xx.2 2 ",
"- a sXdX$X4XpXdX6XdX9X,X$X1X#X).5X$X^.).^.1XoXrX6X$X$XpXoXoX~.yX%X1X,X,XhXXXXXR.$X=X2X=X7X1X1X+X^.OX)..X!.<X:XoX1X3XW.+X&XF.X ; ",
"; t oX~.$X.X$X^.#X2XoX$X#XpX1X1X6XyXpXdXoXpXpXdX2X$X2XpX9XrXpXkXyXlXuX@XiX1XlXiXjXdXdXhXhX+X-XqXdX7XjXXXjX<XhX6XfX3XwX;X].V.- a ",
"  W pXOXsX!.~.E.^.E.v.T.E.$X~.T.P.h.:.k.k.E.x.3.k.l.v.x.V.P.W.OXK.J.!..X7X~.^.n.1X^.L.G.N.c.G.'.R.b.Y.1.D.2.l.k.,.&.3X].'.z.> u ",
"- b OXT.dX} + q > o o - - X X     o   +   o   +   + 3     o o - 2 . X 3 > ; # o o + - $   - t 5 5 # o   o o   # $ $ +X].2XA.8 i ",
": X.pXJ.dXX.+ J X.n ) _ b > n n p  .-.:.z.z. .:.:.,.,.X.X.` s S l p ) } c _ ~ x %.:.<.1. . .} [ J v | ;.1.2.1.n.6 y '.+X'.J.  9 ",
"o X.5XoXlX@.  ^.kX6XlXqX7XiX-XhXD.].`.`.`.+X3XwX1X3XwX;X3X).'.3X+X^.pX-X6XE.6X,X6X6X|.4XQ.4X:XuX,X5XuXhXkXkXlXjXI 6 L.oX1X>Xj j ",
"X X.dX|.1X(   N.pX^.^.E.XX<X%XiX=X=X%XqX1X`.^.P.E.'.9X2XK.9X).P.I.).'.'.P.$X+XH.H.>X>XpX5XuX XT.!.E.!..X.X!..X5X>.- %XaXJ.A.0 j ",
"* _ 9X#XhXX.X 2.jXl.t , 5 z 5 x K d d >.e.b.`.-XP.!.F.~.sX-X).OXdXG.G.=X6X`.&XwX9XkX9XS.-.^ q ; < @ q 3 q l U.kX) = J.<XtX4X& 0 ",
"l @.lX1XsXn   b.6Xj.i d 5 5   5 $ , o #   $ y ' L.W.wXv.M.OX'.H.`.%XL.G.V.2X9X*Xq.3.S @ O 4 S D o.Z H F F l U.aX..= J.7X X<X* * ",
"; X.9X.XpXp X ~.hXj.o d / | / ' d ' $.%.$.K # d   J t.1X$X!.P.G.XX`.H.V.^.;XM.S O O < N V Y R A G G #.C 3 . J.jX;.  j.XX:X:X* : ",
"- 3.dX~.2Xp   F.gXl.= v ' / / / K J K J ' K , J f y 6 t l.6XP.H.`.`.9XS.0.@ @ 4 A C Y R N M E B T 4.H A D 7 !.aX| o L.hX,X|.: . ",
"  3.kX#X^.> , =XkXj.  J 1.%.>.' %.' $.>.&.$.K / %.X.) X o b E.1XXXuXE.` . O N A N M G T 7.8.r.r.r.r.4.G V 3 R.hX/ , n.XXsX9Xs 2 ",
"X -.kXdXoXi , `.sXn.o J ;./ ;.$.$.K J / K ' X.%.] ] X.%.c > p l.T.-.7 O Z A A N +.i.s.a.d.d.8.r.r.8.T H o.s G.<X[ o b.2XOXV.q O ",
"X ) dX3XOX> - 3.kXG.o 6 %.%.&.*.N.N.L.b.J.1.X./ $.J $.' %.$.h s 3 < V H E T G w.i.6.y.m.B.{._.8Xd.d.4.M V @ !.uX{ : n.|.6X1Xs u ",
"+  .pXoX).; X ,.&XL.f d I %.*.e.=X}.wX=XiXiXXXb.$.$.I I I ] U f 4 m R M B 7.a.a.y.M.).-XdXwX;X{.s.s.R D 7 * T.5X~ & J.6X:XF.* q ",
"  ) dX$X5Xx q v.sX'.# 6 L K $.e.qXe., s f ' e.=XwXc.' ' ] f 1 Z N Y C w.i.7.9./.{.eXeXG.t.` S.yXB.a.+.Y 7 3 ).>X{ : A.:XuX!.* a ",
"6 =.pX~.,Xc 2 !.'.P.6 # f ] ] ,.`.e.  $ O o 1 J c.].kX .7 7 Z N m E 8./.q.m._.fX*XV.J   , o n.9XB.a.R P 3 7 .X.Xl o Q.4X!.H.u : ",
"p X.yX|.yX~ : #XU.$Xp 5 / J >.%.D.`.y @ 4 N 1 O . b h.$ 1 Z A N 7.u.f.u..X0X9Xh.f f J $.n v  XuXm.a.A U < S lX.X9 , R.=XpX4Xl u ",
"  v ,X.XkXX.; .X2XOX:.; J I _ %.e.'.] O 4 B A N 7 + . 2 S Z Y w.6.+.M.B.eXK.^ s , %.7X`., s >X#Xp.s.P D < @.yXU.W = XXsX@XR.u o ",
"& z :XU.aX} o S.F.$XW.6 p L  .] ;.XXV.O < N A C D o.3 s D +.9.5.6.B.[.9X:.: J / qXXXXX%.+ h.lXC.p.9.Y U 3 h.9XT.) % D.<XaX6Xv k ",
"- ( aX.XkX:.& x.&X~.=X> i  .n %.I n.G.1 < V V H V C C 4 V P 9.m.{.8XM.O., i D.sXXXXX`.6 3 S.0Xm.y.+.` D 7 K.5X#X( = `.aX:XQ.u % ",
"h ..>X#XsX( : h.OXx.yX3.X y ) L J $.V.t.. 7 Z A H C H C N < O t.wX*.6   L wX1X~.XXXXb   ,.0XB.a./.Z o.D F &X2XdX .= Y.sXaXjX/ z ",
"v 1.jX<X5Xb   b.sX^.T.b.b t x L $.I Z.].f # 3 C H H G C C H @ O _ + 3 t.].G.N.b.iX1.  c [.{.i.r.+.P D O 0.&X.XsXX.- ~.%XQ.:X! ! ",
"i ..4Xv.:X1.- k.!.P.F.fX) t W L $.U I wXL.o 7 7 m H B T A D 7 t   q OXsX`.`.L.iXk.  : *.eX/.w.6.Y P 4 s *X.XJ.uXX.i `.sX<XiX/ ! ",
"z X.aXXXrX:.  V.K.OXT.G.F.t a _ I I K >.qXt.o 4 #.C T B C s c   u & X.1X[.=XqX`.f - } . Y /.f.7.Z S s M.,X).~.pXX.p k.aX|.7X{ Q ",
"r %.<XR.sXk.; z.).P.G.b.6XX.> J $.K e.d e.`.$.$ 4 C Y H C 3 . ] E.(   :.qXW.G.f o J 2.S # 5.5.Z P 3 ] 8X).T.T.6X3.p k.9X|.kX{ ! ",
"e ;.7XY.-X1.  3.K.).V.).OX!.i 6 ' K $.%.$.c.wXI < V C D s O $ ].jX~.s . ] 9X) > d ' >.e.L $ P S f 6 M.1XE.#XF.:Xn ; +XsXXXaXQ j ",
"e / 7X%XsXl.# N.-XG.!.!.J.+XF., d J d $.e.e.Z.Z.F O ` s O 3 _.(.y.=X).2 * q % ) e.>.$.$.>.f ) > + z.1X^.F.4X%X1X .# v.5X5XjX{ 0 ",
"e | sXL.-XG.X &.t.K.'.].OXoX&Xk.5 e K ' $.I $.;XS.^ * F } C.*X] f I.&X).F v ( oXqXl.' ] ' L - t x.1Xb.T.#X~.'.OX_ t h.kX#X.X^ w ",
"r <.sXW.9Xb.   .;Xt.^.+X#Xv.I.;Xs u  .J J $.' >.pX2.5 + k.+XK.O.U u.*XfX-.: & g.qX7X&.X.] ] ) > 1.4XU.5X7X`.Z.;X,.9 h.tX.XuX=.: ",
"r ;.aX'.1XA.: :.=X`.R.v.T.5X;XU c F + L ' I J >.]   L $   e.[.I.u.8X0X&.. [ 9 : v.wXL.' &.J L t e A.>XJ.].;X;XqX2.k S.hX.X.Xv & ",
"0 =.6X^.wXJ.  =.-X`.^.oXT.OXc.7 7 S 1 b _ ' :.J = 5 L.L.@ 6 ,.+XL.`.,.. s 4 7 F $ W.wXe.L 1.' f > =.4X XL.].].;X-.0 A.gX+X1X .z ",
"! / 7XG..Xv.l 2.].`.^.J.H.9X+.1 Y R S . a ..X.d # y.8X[.I..   l.hX>.  3 C C H < @ K ].V.%.%.%.,.b 8 A.tX`.I.[.8X2.w b.aXoX1X) v ",
"0 =.gXR.yXl.X :.%XN.N.G.#Xh.4 U U +.a.P 3 W v   >.[.Z.[.wXt.y X <.0 q ` m B G H 7 O ,.=Xc.e.%.e.;./ { <XT.I.I.wX} 0 n.rX~.-X| v ",
"/ =.gX`.$Xz.& b L.L.c.n.!.` N Z E 8./.Z.F q l _ ].`.Z.;Xy.;XW.( & w ^ H H B m B m V 7 `.`.t.e.$.J / = b.1X;X`.fX-.w A.dX=XqX/ , ",
"r ..iX=XkX~.= _ b.W.`.^.3.2 P R 4.i.u.8XM.k , R.].V.{.Z.[.V.$.- e v 7 H m T G m Y N 1 $.`.L.e.e._ n / v dX`.I.qX<.0 g.aXdXkX..g ",
"0 | iXqX2XT.= | wXG.b.*XS Z D E i.r.(.}.f - :.XXN.`.`.].,.f   ' V.7 < m H B m w.A U U d N.wXn.>.K n [ e n.wXW.-Xh.k h.6X=X1XW e ",
"r | sXP.dXv., | -XV.wX,.@ ` A +.s.a.}.M.6 K `.|.T.tX!.X.; 1 >.8XeX6.N 4 4 < #.o.o.o.D V c +X`.' %.1.| / X.rXG.qXb.0 :.,X6XkX=.k ",
"r ..dX`.qXH.u ..`.L.lX3.; Z Y 9.p.C.8XU # &.R.Q.gXx.^ * b V.eX[.a.7.s.+.@ 3 3 F ` V o.P 1 V.7X' >.>./ / t V.$X1XT.& <.5X^.+X..g ",
"! ;.<XW.jX&X* { -XP.oXS 7 ^ T i.p.8Xc.6 K `.qX=X..k q -.*XwX[.a.r.r.4.E c J X a F ` q.o.O @.sXL.>.>.X...= X.=XF. X0 3.uX'.1X..w ",
"! ;.qXR.$XT.k =.+XG.G.2 s C 5.q.c.3X&.o c.=XN.e   a z.9X8X_.m.5.7.4.N U J = l.x O 1 D ^ L ' XX`.%.e.;.<./ ..7X%Xb.w 3. X^.4X{ ! ",
"9 <.wXv.hX6Xj } %XV.c.7 F Y 9.i._.1X) 5 >./ # # $.].8X0Xp.m.9.5.N N #.$ s e.kX7Xx.c 3 s F f `.qXe.e.e.' / e U.$X1.k A.dX+XrX( ! ",
"j | wX`.5X!.^ 1.=XP.0.s ^ #.p.a.*XW.o e = e d V.qXwXB.i.m.p.G C N 4 O 1 ] L e.].9X).x.L c 6 c.`.$.$.e.;.( i ~.hXh.> v.dXW.2X{ ! ",
"! | -X+XhX@X9 ..^.*Xq.s C H 9./.*X'.:...j.D.iX;X[.a.s.r.4.M M C $ : 3 F Z I ] K &.].-XOXpX=X=X`.' $.e.;.[ e J.pXz.w F.hX-XkX..r ",
"j | 1X~.oX#Xu W G.1X-.V ^ P +.i.8X[.jXsXiXqX=XL.B.s.s.R E M C < ~ k * q f U O.U L ] :.z.c.n.L.L.J %.;.;.;.v Y.gX2.W J.OX~.gXQ w ",
"e v tX%X2XuX) b T.2X-.s P D 6.6./.(.{.{.a.p.B.M.u.P Y f V . O F aXJ.q X a &.*.$.] I J I $.I I $.%.e.| / / 0 D.aX| z R.sXL.rX{ 9 ",
"e W iX:X,X,Xb n ,XsX,.S P P i.a././././.a.6.5.P D D V 7 ; 3 2.#XT.T.x.X t y X.&.$.J d d K I ' $.$.e./ e.;.e >XaX<.i D.aXU.tX/ 8 ",
"i Q >X@X5XyX^ n #XtX..F -.O.5.5.5.y.h.5.O.Z +.o.A S @ L x.P.*XI.c.E.fXV.L   $ L ] J K J I J ' ] J z | ;./ r <XgX;., l.7XQ.aX..0 ",
"9 Q tX:X,X#X~ { .XuX..s ` D #.o.H D H C o.D ` s 3 S @.*XfX].G.t.C.V.c.;XwXG.6 6   o d d K K _ %.z z | | ! / XXtX| e b.qX|.hX=.9 ",
"! Q >X|.tX@XW k  XaX-.W } ` o.D ^ o.^ q 3 ; D ^ 0.).eX).G.G.`.Z.V.I.(.t.K.].wXc.L ; #   X % - e e e = z i / gXiXh u L.hXU.4X=.! ",
"g v :X:X,XQ.( ^ <XgX..r q 3 7 @ * w w F } 0.^.&XyX*X&X(.].W.c.N.c.[.p.I.c.I.V.3X-XH.z.:. .( 8 u e d / / / 1.<XXX) = k.iXQ.5X..u ",
"g g U.7X,X,X{ v  XtXb.A.2.3.h.0.b..X.XuXuX5X$X$X).J.K.G.K.`.c.M.V.].`.V.C.].).v.z.H.1XpX:X@XY.uXD.XXgXgXgX<X>XtX..u v.aXA. X^ k ",
"i z U.sX!.@Xv u <XkXtXjXkXdXjXkXuXkX.X.XT..X+X7X*X*XOX-X].;XC.L.[.].[.].].I.V.-XI.T.b.b.A.T.x.#XD.`.N.R.aX<XaXkX=.t 2.:X XgX<.g ",
"p e l.F.*XdX) h A.A.j.XXXXY.b.l.1.3.<.n.n.l.n.b.2.k.&.t.z.c.0.@.%.@._ D p n 2 ` c c - 2 2 X a p t : k l v k { } / > l.gXU.kX<.0 ",
"h h V.dXwXwXn > = r = z r = # 5 o 6 # e 6 5 o d # o   y # + X 1   $   : - s q f n S x a f c c t b ~ W w j w 0 0 x W v.aX@XaX=.0 ",
"h 5 E.qX-X$Xx.2.=.j./ j.:.>.>.k.>.:.,.2.k.N.e.l.x.1.2.b.z.c.b.T.v.S.U.S..X!.5X!.2X!.-X&X2XOX).K.$XpXQ..XY..Xg.A.Y.Q.J.%X XtX=.Q ",
"z 5 P.1X'.3XpXrXXXgXY.aX4XrX=X-X=X+XjXdX7X3X7XwX3X3X2X2X&XdX,X5X#X).tXK.#XJ.yX).6X!.,X&X&XE.).).OX#X XtX.XgX XgXrXgX!.rX XkX=.k ",
"z r n.kX!.9X#X#X XaXY.<XQ.Q.H.!.E..XOXK.^.%Xv.^.V.%X%XR.!.OXS.K.~.H..XH.S.S.~..XT.U.T.T.!.K.,XK.pXT.,X X.XY.Y.>XQ.@XR.7X XgX=.g ",
"e r g.aX.X>X9XjX XtXXXtX X>X,X7X X5X&X,XR.rX#XkX~.%X~.H.OX5XOX*X5X^.1X$XOX#X1XpX).!.|.5XlX4XuX X5X!.uX#X>X XuXuX|.XXtX,XY.J.^ r ",
"0 0 / ..^ s | <.{ / Q Q ! ^ ^ l ^ ^ l ^ h ..[ { W x > > y c S s p $ f y x > h a p 9 w ^ =.Q j 9 S b ^ ^ j ^ | ^ W W b h u r ! ! ",
"0 ! w k k ! k 0 ! 0 ! k j j k : w l w & k * * %   X - > X ; l .   # o > #   X X 9 * & & * q : 9 9 : q 9 w w j : h Q 8 v Q j r 0 "
};
