/* XPM */
static char *b44770803caa42bda0b26dc726c03aceuG6K7274PyBobBpy[] = {
/* columns rows colors chars-per-pixel */
"64 64 237 2 ",
"   c #040302",
".  c #0A0603",
"X  c #0B0906",
"o  c #060509",
"O  c #090709",
"+  c #06080B",
"@  c #0B0A0A",
"#  c #070803",
"$  c #120B05",
"%  c #110E0A",
"&  c #140A06",
"*  c #13110E",
"=  c #1B150C",
"-  c #171107",
";  c #0F0D10",
":  c #110F10",
">  c #151312",
",  c #191612",
"<  c #1D1915",
"1  c #1C1B19",
"2  c #191718",
"3  c #231B14",
"4  c #231D1A",
"5  c #291F19",
"6  c #271A0D",
"7  c #2C221B",
"8  c #2A2117",
"9  c #3B2C1E",
"0  c #34281C",
"q  c #2B2723",
"w  c #342C24",
"e  c #3A2D24",
"r  c #322B26",
"t  c #35322B",
"y  c #3D342A",
"u  c #3C3328",
"i  c #3A3834",
"p  c #443425",
"a  c #43352A",
"s  c #4C3C2D",
"d  c #47382A",
"f  c #4C3C33",
"g  c #423B34",
"h  c #513F33",
"j  c #4C3727",
"k  c #4E4234",
"l  c #4C443B",
"z  c #44423B",
"x  c #524434",
"c  c #53443A",
"v  c #564A3B",
"b  c #5B4C3C",
"n  c #59463D",
"m  c #51412E",
"M  c #65503E",
"N  c #4B4943",
"B  c #534C43",
"V  c #584C44",
"C  c #5D5343",
"Z  c #5D534B",
"A  c #57544F",
"S  c #595752",
"D  c #614F41",
"F  c #635444",
"G  c #655B4C",
"H  c #6B5C4C",
"J  c #675648",
"K  c #735F4D",
"L  c #665E55",
"P  c #69604F",
"I  c #6D6253",
"U  c #6B655C",
"Y  c #65625A",
"T  c #736353",
"R  c #756B5B",
"E  c #7C6C5C",
"W  c #766758",
"Q  c #7C614C",
"!  c #6C6964",
"~  c #7E6E61",
"^  c #726C65",
"/  c #7D7262",
"(  c #77736A",
")  c #7A7974",
"_  c #816D5E",
"`  c #847565",
"'  c #897666",
"]  c #837769",
"[  c #857A6B",
"{  c #8B7C6C",
"}  c #857867",
"|  c #927E6C",
" . c #827E77",
".. c #907E70",
"X. c #8E8373",
"o. c #85837D",
"O. c #878378",
"+. c #938474",
"@. c #958A7A",
"#. c #9A8C7C",
"$. c #948779",
"%. c #9D917E",
"&. c #90816F",
"*. c #A08F7F",
"=. c #898883",
"-. c #938E86",
";. c #8F908B",
":. c #9D9181",
">. c #95938C",
",. c #9B9688",
"<. c #9C9B94",
"1. c #9A9995",
"2. c #A39484",
"3. c #A59A8A",
"4. c #AB9D8D",
"5. c #A69789",
"6. c #A49C93",
"7. c #A89E95",
"8. c #AA9689",
"9. c #ABA18F",
"0. c #B1A48F",
"q. c #A7A195",
"w. c #ADA294",
"e. c #A3A29B",
"r. c #ADA59C",
"t. c #A8AA9F",
"y. c #B3A494",
"u. c #B4AB9C",
"i. c #B9AC9C",
"p. c #B5A697",
"a. c #BBB19E",
"s. c #A9A6A3",
"d. c #AAAAA5",
"f. c #ADACA9",
"g. c #A5A6A1",
"h. c #B4ADA2",
"j. c #B6AEA6",
"k. c #ADB1AC",
"l. c #B6B0A4",
"z. c #BCB2A4",
"x. c #B3B3AD",
"c. c #BCB5AB",
"v. c #BEB9AC",
"b. c #BFB9A7",
"n. c #B5B5B3",
"m. c #B9B7B5",
"M. c #B5B9B5",
"N. c #BCBBB4",
"B. c #BBBBBA",
"V. c #B7BDB9",
"C. c #B1AFB0",
"Z. c #C0AE9D",
"A. c #C1A995",
"S. c #C3B4A4",
"D. c #C5BBAC",
"F. c #CBBCAC",
"G. c #C5B7A9",
"H. c #D1BEAF",
"J. c #C3BCB2",
"K. c #C8BEB5",
"L. c #CBB7A9",
"P. c #BDC1BD",
"I. c #C4C1B4",
"U. c #CBC2B5",
"Y. c #C3C3BD",
"T. c #CCC5BA",
"R. c #CCC9BC",
"E. c #D3C3B4",
"W. c #D1C7BA",
"Q. c #D2CABD",
"!. c #DBCCBC",
"~. c #D8C6B5",
"^. c #CEC2AE",
"/. c #C1BFC0",
"(. c #BFC2C1",
"). c #C3C5C1",
"_. c #CAC7C2",
"`. c #C6C9C4",
"'. c #CBCBC4",
"]. c #CCCECB",
"[. c #C6CBC9",
"{. c #D4CDC3",
"}. c #D2CBC4",
"|. c #CED1CE",
" X c #D4D1C4",
".X c #DDD2C3",
"XX c #D4D3CD",
"oX c #DCD5CB",
"OX c #DBD9CE",
"+X c #CDD1D3",
"@X c #CFD4D8",
"#X c #D3D5D3",
"$X c #DAD6D1",
"%X c #D6D9D5",
"&X c #DCDAD4",
"*X c #D4D6D9",
"=X c #D6D9DC",
"-X c #DBDCDC",
";X c #D8D7DD",
":X c #C9CED1",
">X c #E3D5C5",
",X c #E3D7CB",
"<X c #E4D9CA",
"1X c #EADCCC",
"2X c #E9D4C1",
"3X c #E3DDD4",
"4X c #E3DED9",
"5X c #EADED1",
"6X c #F1DECF",
"7X c #DFE0DD",
"8X c #ECE2D4",
"9X c #E4E2DC",
"0X c #EAE4DC",
"qX c #E9E4DA",
"wX c #F3E4D4",
"eX c #F1E6DB",
"rX c #F3E9DC",
"tX c #F9ECDD",
"yX c #F9E8D8",
"uX c #DCDDE1",
"iX c #DEE1E4",
"pX c #E2E3E3",
"aX c #EBE6E1",
"sX c #EDE9E3",
"dX c #EBEBEA",
"fX c #E4E6E7",
"gX c #F3EDE4",
"hX c #F3EDE9",
"jX c #F8EFE4",
"kX c #F5F1E6",
"lX c #FDF2E4",
"zX c #F5F1EB",
"xX c #FBF5EC",
"cX c #FFF9EE",
"vX c #FBF5F1",
"bX c #FEFBF4",
"nX c #F8F7F5",
/* pixels */
"+ + + + @ + + + @ @ + @ # # @ + +   : +   % # @ # # $   * . . . .         . X .   % >   O > + + + @ o @ @ + X X + @ X + @ + @ @ ",
"+ + + + + @ @ + + @ X + X X X O ; + +   @ X   # = - < , . 3 r < N z i q , X $ $ % .     +   ; + + O + @ + @ @ + + X @ + # @ X + ",
"@ @ + + + + @ + @ @ X X X X X + +   2 > * # i =.<.N.N.v.s.C.s.s.dXdX&XN.o.N *   #   , *   + o @ @ @ @ + @ # + X @ + X X @ o + X ",
"+ + + + @ + @ @ + @ @ @ @ @ X X > :   > X   <.'.P.9X0X0XpX4XK./.m.B.N.x.e.O.^ Z w 3   *   @ O @ + o @ X + X @ + + X @ + @ X @ + ",
"+ + + @ ; + @ @ @ @ X @ @ X @ @   2 2   , B N.aXR.I.$X3XXX}.$X_.R.P.M.x.x.l.u.e.h.O.  . ,   *   X @ @ @ + @ @ @ @ @ @ @ @ @ @ @ ",
"@ + @ + @ + + ; @ @ @ X @ @ @ * @ @   r 1.pX&X4X9XoX9X9XhX4XaX4XXXR.P.v.l.q.-.[ X.( U # . # @ - @ @ @ @ @ @ @ @ @ + @ @ + @ + @ ",
"@ ; + @ @ @ @ @ X @ % @ $ X % % . 4 > n.hX&XvX4X9XzXsX0XnXaXXX4X7XOX XI.v.u.,.@.( ,.kXI # =   X # @ @ @ @ @ @ + @ + + @ @ @ @ @ ",
"+ @ @ @ @ ; @ @ @ X @ @ X % % % 3   ! bX4XdXaXnXzXxXzXbX4XhXsX4XOXOX X XR.l.3.O.@.3.z.,.$ X - X @ @ @ + + @ @ @ @ X @ @ @ + @ @ ",
"@ @ @ @ @ @ * @ 1   $ > . $ > % X t oX0X&XvXsXbXbXbXnXzXkXdXqX9X7XOX XR.P.a.9.@.@./ C P u   = X % @ @ @ + @ # @ @ @ + @ @ + @ @ ",
"@ @ @ @ @ @ @ @ X @ % . * % * $ r 3X0XzXzXgXvXzXbXnXzXzXkXkXqX3X XOX XR.I.b.9.X.R v k / C 3 . X @ + ; @ @ @ @ @ @ + @ @ @ @ @ @ ",
"@ @ % @ @ @ @ % X % X . 3 & $ > J.kXgXbX_.$XbXhXzXzXsXsXdXsX7X XR. XQ.P.P.a.,.[ P v P 3./ P $ - # @ @ @ @ @ @ @ @ @ + @ @ @ @ + ",
"@ + @ @ @ % @ @ * . % % X % % i jX0X3Xc.v.gXhXzXzXdXsXsXqX7X%X XR.^.P.P.t.9.@.[ C C X.9.T @.8 $ % @ @ + @ @ @ + @ @ @ @ @ @ @ @ ",
"@ @ @ X @ @ % $ X & * X . 3 X ! 0X,Xj.h.5XhXaXvXzXzXzXhXsX9XOXOXOXP.P.P.a.%.@.X.C x &.@.m %.x $ X @ @ @ @ + @ @ @ + @ @ @ @ @ @ ",
"@ @ % X $ @ $ @ & * X & , $   r.lXr.u.rXaX0XsXbXnXbXvXhXqX&XOXOXOXR.P. XR.a.,.%.P m } X.v %.P 8 % @ @ @ @ @ @ @ @ @ @ @ @ @ @ @ ",
"X @ @ @ @ @ $ @ > X . & < X N 3X3Xh.,X,X3XvXhXbXvXvXhXaXqXOXOXOX X XOX XI.u.3.%.R m G R P [ P z @ @ @ @ @ @ @ @ @ @ @ + @ + + @ ",
"@ @ X @ @ @ @ & X X < X . r }.bX,X7.5X5XvXaXbXvXvXzX0X4X8X<XOX X XqXqXR.b.0.3.@.R b m G / } R S % # % @ @ + @ @ @ + @ @ @ @ @ @ ",
"X X @ @ @ @ : @ @ # % , $ =.gX5X>X:.1XrXgXkXxXxXlX1X8X8X>X.X X XR.>XR.9.3.9.@./ } C x C T / R v t # X X & @ ; O O ; @ @ @ X X @ ",
"X % @ @ @ @ ; @ > X X * . ( jXxXH.$.1XjXbXxXrX9XP.a.0.0.b.^.a.b.I.I.%.R P P P C R b C C b P R C l > % X . O ; @ O O + O @ O @   ",
"X X @ % @ @ @ @ @ @ @ = $ B oXR.| ' !.eXkX&XR.}.Q.^.%.T &.%.%.b.a.&.v u C ( X.[ I b m d b } &.G L t # X O . ; ; ; O O O @ # X + ",
"@ % @ @ : @ @ : X * % X $ g _.5.T ' U.1XkXOXT.R.a.a.%.W R @.0.R.%.G 0 d R @.X.I P v F k u E %.G Y g # * % O O O O ; ; O @ @ # X ",
"@ X @ @ @ @ ; ; @ * @ X % g 3XS.*.9.D.oXxXOXl.6.:.@.%.&./ 9.U.<XP./ m m P R I b k p P F 9 [ y.k ! z   * X X O O + + @ @ # @ # @ ",
"X @ @ ; @ @ ; + @ @ X = ; y oX{.i.S.^.oXkXOXx.6.^.9.9.#.&.a.8XeX1X&.C C / +.+./ m G W C P #.} e R t # X X . O ; @ @ @ + @ # X + ",
"% X @ @ ; @ @ ; @ @ % , . e }.K.0.E.W.qXbXkXkX0XOX^.^.^.F.1XjXjX<X@.P [ 3.w.2./ R y.%.P T J p a L , # $ X . @ ; @ @ @ @ + @ # @ ",
"$ @ @ @ @ @ @ @ % @ $ @ . B ,X{.2XwX XqXcXcXbXkX8X>X!.!.2XwXwXrX8X9.[ @.%.4.4.#.i.9.@.W x x x p l # X * % O @ @ @ ; @ @ X # @ # ",
"@ X @ @ @ @ : ; :   * * X y 3X,XwX1X<XrXnXxXkXnXrX>X2XyXwXwXrXwX<Xb.P R a.a.a.a.z.4.+.T a E ` 0 y X . * ; . ; ; ; O + @ @ X X # ",
"@ & @ @ @ ; @ @ @ @ * * X g 4XD.!.!.OXqXkXxXzXkXsX<XlX~.1XtX5XF.9.%.G / %.^.^.0.S.4...H h J H f 0 X . % . . ; O ; @ O ; @ O # @ ",
"@ X @ @ @ @ @ @ X % X < X w }.T.~.<X8XOX7XqXkXsXcX<X^.0.!.' V { P v 0 m P a.b.%.2.+.W M n s s h 3 # O % . & ; o O O O O @ # @ + ",
"X & @ ; @ @ ; ; @ * # , X = 6.lX<XwXrX&XXX7X0XqX<X1X2.S.,X8.$.p.R m 8 m v @.9.0..._ H x n j x F $ X & & O O ; o O ; O @ + @ # X ",
"O ; O ; X @ @ @ @ % # % % $ V jX<X1XrXgX7X7XqX&X.Xz.y.wXyXwXbX.Xz.%./ E &.&.&.2...T F f x h J T $ X - X & @ ; O + + @ @ X @ # @ ",
"O & ; O @ @ ; @ # : * # = = > D.<X.X5XqXOX7XqX9XU.#.!.lXlX!.2X.X1X.XG.5.3.#.} &._ H F D J D F v . $ - X . ; ; O @ @ @ @ X # X + ",
"O X @ ; @ ; @ @ # : % X * , . @.yX.XOX3XOX9XsX3X6.F.xX6XyXL.8.h.p.i.w.2.2.3.} } _ _ H T ' W j 9 X $ X X & @ O O @ @ @ + + @ # @ ",
"& X @ @ @ @ @ ; ; * # * X $ - $.lX5X8XqXOXsXqXI.D.8XwX!.S.{ f p d k F [ { %.T T { { n D _ H 6 6 $ X . # ; @ o ; @ ; @ @ X # @ # ",
"@ @ ; @ @ @ @ @ @ # X * # 1 % U jX4X5X8XgXvXT.,XwX8XE.y.M 9 x ` X.+.G m E &.} &._ _ M E _ x 0 - $ X @ @ @ @ o + @ @ @ + @ @ @ + ",
"@ @ @ % @ @ % % # * @ % @ - @ >.bX8XxX3X5X5X5XwXtXwX8.H 9 _ 4.F.i.u.%.b x %.i.' _ K } E +.P d . X X @ @ + @ @ X @ @ @ @ @ @ @ @ ",
"@ @ @ @ @ @ @ @ # > # X = @ > P.jX0X.XoX.XeXwXjX<X!.+.h H L.2XE.G.0.0.%.&.A.^.&.J M +.' T ' f = X @ @ @ @ @ X @ + @ @ @ @ @ @ @ ",
"@ @ @ @ @ @ % X # * # @ = @ , t.gXc.6.0XW.8XwX,X5Xz.@.b S.2XyX!.U.>XW.i.0.^.8.M K K *.E p H c 7 X @ @ O   @ + + @ @ @ + @ @ X + ",
"@ @ @ O @ @ @ @ * X # X X # # S 4X .p.jX{.K.lXW.>X2.' / 1X1X1X!.^.>XS.2.%.Z.0.&._ K :.n f a F 6 X @ @ @ @ @ + X @ @ + @ + @ @ + ",
"O O O @ @ @ X @ * # X @ # X X < O.7.3X4XW.{.5X{.z.:./ p.1X1XH.S.i.G.a.0.+.S.^.0.H M H f V h V & X @ @ @ + @ @ X @ @ @ @ @ @ @ @ ",
"& O O @ X X @ @ @ # @ @ % * * X 8 6.rXoXW.4XQ.W.G.h.X.Q.1X<X~.i.S.>X!.0._ Z.0.M h J D D c F e . X + @ @ @ @ @ + @ @ @ @ @ @ @ @ ",
"O @ O O @ @ @ @ @ % % # X X X % % i ,X0X3XW.oXG.u.y.:.1XtX!.H.2.D.S.2.&.Q *.| j H ..$.L V g 3 . & O + @   @ + @ @ @ @ + @ @ + @ ",
"@ o >   @ @ @ X @ @ X X * % % * X y 3XR.J.I.Q.Q.W.u.+.D.5X.XS.3.4.!.S.+.J _ | J ' $...W U f   & @ @ @ @ @ X + + X + + @ X X + + ",
"@   :   @   % @ @ X X X X X % = - S 8Xz.J.J..X4XU.K.3.!.E.y.y.@.E.4._ b x K ' Q J 2...h F B & - X # + + + @ @ @ X + X + + @ @ X ",
"@ O ; X O   % O X X % * % @ X >   z Q.d.v.T.qXQ.U.j.p.wX.Xw.y.4.p.` T H J _ _ H J 4.~ e h g .   X + @ @ @ @ @ @ + + @ X @ + + X ",
"o @ O ; @ O :   @ @ X @ #   X , l <.v.) K.D.J.U..XK.K.<XK.y.2.4.{ ' E _ K ' _ j T ..V w a 5 & & @ @ @ @ X + @ @ X + X + X @ X + ",
"O : O O @ : @   ; O @ , r A o.s._.0X X>.J.j.J.K.{.eXU.K.3.+.0.4.' #.M J b *.$.j _ T a a r & & & @ @ @ + # o @   @ + X + + @ + X ",
"O : O   @ >   q i A ) s.).OX-X9XsX}.0X4XJ.J.$XJ.,X0Xr..XS.+.E.4.K *.K +.+.A.y.M W D f a 5 & & . X X #   +   + @ X X + @ + X X + ",
"O @ @ O ; : @ ( ].].XXXX#X].].XX4X9X9X$X}._.j.W.jXQ.w.eXz.2.2X&.j *.4.L.~.~.Z.W h h a 0 5 7 3 2 : : @ @ @ @ # @ + @ + X + X @ + ",
"X @ : @ > ; ; f._.).Y.`.'.|.$X-X$XaX9X8X4X$X7.R.,Xr.c.U.~ p.6X| s %.Z.p.~.H.Z.' h h f 5 q q & 4 1 1 2 > @ @ + + @ # + X @ @ + X ",
"@ . % @ @ # q M.P.Y.'.].].XX7X%X9X9X3X&X9XOX].Y.}.J.Q._ 8.2XA.M M Z.H.L.H.*.T J f n c e 5 5 7 4 7 , q 1 . % O @ @ @ @ @ + @ @ @ ",
"@ O * X % # z P.P.Y.`.`.`.'.XXXX&X3X0XpX7X&XXX].}.r.U 2.L._ _ ' _ 6X~.H.L._ p a V n f e q 7 5 3 1 1 q q . $   X @ X @ @ @ + @ @ ",
"@ X @ % > # Y 7X`.`.[.`.`.(.`. XOX9XsXdXfX9X=X&X>.B Z i.K b A.h h y.L...$._ e J n c a 0 q 7 3 < 2 4 t i . X   # X @ @ + # @ @ + ",
"% X * X > # =.7XXXXXXX].[.R.`.[.%X&XaXdXdXdXpX9XC.6.6.7.' | ' h 9 2.~.$.Z.' p J n f e r 7 5 3 < 4 q i N @ X X @ @ X @ @ @ @ + @ ",
"X % % X , @ t.7X&X%X%X|.|.].].|.#X%X7XfXdXfXfXiX;Xm.c.r.y.F...2.h ~.~.4.H.J j V f a r 5 5 3 3 q r i N Y ; O X @ @ @ @ @ @ @ @ @ ",
"@ X * % * 1 P.7X%X%X%X#X7XXX%X%X*X@X%X=XiXfXiXiX;X&XY.6.7.G.] { M ..4.8.T h h f a r 5 5 3 3 5 t B S ! ) 2 o @ X @ @ @ @ @ @ @ @ ",
"X X * X X t |.7X%X%X=X7X=X7X7X%X=X@X@X@X@XuXuX=X%X#X_.N.7.-.] ~ G c ..#.a V e 9 0 5 5 3 4 r g A ! ( ) ;.2 O X   @ @ @ @ @ + @ @ ",
"% @ * % # z 7X7X&X7X7X7X7X7X7X=X=XuX=X@X@X(.@XuXuX#X].).1. . . ./ W G c J h 5 p 5 5 5 5 t N Y ! ) o.o.;.4 O % X @ # @ @ @ @ + @ ",
"* # * < o N dX4XiX9XpXpXfXiXuX=XuXuXiXuX@X@X@X@X%X+X%X(.t.<.e.@.O.R P Y P l u t 7 r a z A ! ^ ) o.;.;.1.i   * # X X @ @ @ @ + @ ",
"*   * > X S dX-X7XiXpXpXfXpXuX-XuXuXiXuXuXuXuX=X=X@X%X(.t.t.P.P.;.O.( ( ^ G l k f N A L ^  .=.=.;.1.1.e.z   : X @ * % @ @ + @ @ ",
"* X * * @ ! nXuXpX4XuXpXiXpXuXuXuXuXuXuXuXiXuX@X=X(.(.(.k.P.P.P.t.<.-.,.@.( ! Y U ! (  .=.;.>.1.1.g.e.d.N   * @ @ X % @ @ @ @ @ ",
"% % > % + =.nX4XpX-XuX-XuXuXpXuXuXuX*XuXuXiXuX@X=X@X(.P.t.P.|.(.P.l.d.t.e.;.O.O.o.o.=.=.>.1.1.1.g.d.d.f.A   @ ; @ @ @ @ % $ @ @ ",
"X * > * O ;.zXuXuXuXuX*XuXuXuXuXuXuXuXuXiX7X=X@X=X[.(.(.k.P.(.%X`.P.V.M.k.e.<.<.1.1.1.1.1.g.d.d.d.d.k.k.Y o @ * & ; ; O @ ; & O ",
"X % , * ; 6.dXuX;XuX;XuXuXuXuXuX;X=X=XuX@X%X+X%X|.(.P.(.P.(.=X=X|.`.Y.B.P.k.f.k.C.f.s.s.f.k.n.M.k.k.k.k.^ # @ * @ O ; & % @ & ; ",
"% X * > > C.fX;XuX;XuXuXuXuX*X*X;X;X=X=X*X+X@X%X(.P.P.P.P.P.%X%X%X[.(.B.B.V.m.B.m.n.C.C.n.M.V.B.M.k.M.M.) @ @ % @ @ & ; O & O ; ",
"* @ * , 2 B.aX4XpXpXuXuXuXuX;XuXuX;X=XuX-X%X%X%X|.P.P.P.P.(.7X7X=X|.(.P./././.Y.B.B.B.n.M.B.B.V.P.M.M.P.=.* @ ; @ % ; ; ; ; O & "
};
