/* XPM */
static char *_7bc50a3819c09b24f118effe79411fa1678730639[] = {
/* columns rows colors chars-per-pixel */
"64 64 256 2 ",
"   c #030202",
".  c #0B0201",
"X  c #040A03",
"o  c #0B0A03",
"O  c #01040B",
"+  c #0B050A",
"@  c #04090C",
"#  c #0C0B0B",
"$  c #130200",
"%  c #1B0300",
"&  c #130A02",
"*  c #1B0B01",
"=  c #130C0B",
"-  c #1A0D0B",
";  c #15050A",
":  c #091409",
">  c #1A120D",
",  c #161508",
"<  c #020611",
"1  c #030A13",
"2  c #0B0D12",
"3  c #0A0E1B",
"4  c #160B15",
"5  c #0C1214",
"6  c #08141A",
"7  c #141313",
"8  c #1B1412",
"9  c #14151A",
"0  c #1A1A1A",
"q  c #1A1A17",
"w  c #230200",
"e  c #290300",
"r  c #230C01",
"t  c #2C0C00",
"y  c #290D09",
"u  c #3A0D00",
"i  c #350700",
"p  c #241203",
"a  c #2C1204",
"s  c #23140C",
"d  c #2C190C",
"f  c #261909",
"g  c #351403",
"h  c #3A1401",
"j  c #3A1B03",
"k  c #321B0C",
"l  c #371A0B",
"z  c #261815",
"x  c #371D13",
"c  c #240E10",
"v  c #172416",
"b  c #0F2117",
"n  c #27270B",
"m  c #35250D",
"M  c #292418",
"N  c #3C2315",
"B  c #3B261A",
"V  c #352718",
"C  c #3A341B",
"Z  c #2A3419",
"A  c #1A1B23",
"S  c #251923",
"D  c #2B0C2B",
"F  c #182628",
"G  c #1B3528",
"H  c #282628",
"J  c #382825",
"K  c #383626",
"L  c #3A3436",
"P  c #2A3121",
"I  c #451802",
"U  c #43130C",
"Y  c #472609",
"T  c #572909",
"R  c #442C1C",
"E  c #4C2D1B",
"W  c #482716",
"Q  c #572D15",
"!  c #49331A",
"~  c #57331B",
"^  c #67391B",
"/  c #753B19",
"(  c #62300D",
")  c #452C23",
"_  c #493628",
"`  c #543223",
"'  c #5B3522",
"]  c #543B2C",
"[  c #5C3D2B",
"{  c #573926",
"}  c #4C3C35",
"|  c #563B33",
" . c #422F31",
".. c #633D22",
"X. c #6A3A28",
"o. c #6E3A2E",
"O. c #70421E",
"+. c #58422D",
"@. c #4A4239",
"#. c #544234",
"$. c #5C4234",
"%. c #5B4938",
"&. c #504830",
"*. c #654225",
"=. c #6C4325",
"-. c #63422C",
";. c #6B452C",
":. c #6D492D",
">. c #6F4C24",
",. c #734325",
"<. c #72452B",
"1. c #744B2C",
"2. c #7B4B2C",
"3. c #7D4826",
"4. c #634631",
"5. c #6B4531",
"6. c #654A35",
"7. c #6D4B34",
"8. c #654B3C",
"9. c #6C4D3B",
"0. c #67453A",
"q. c #734433",
"w. c #744C33",
"e. c #7A4D33",
"r. c #744D39",
"t. c #7B4C3C",
"y. c #784437",
"u. c #67553B",
"i. c #745135",
"p. c #7B5234",
"a. c #74533B",
"s. c #7C543B",
"d. c #7D593C",
"f. c #7B562C",
"g. c #574D46",
"h. c #624E47",
"j. c #774B42",
"k. c #6C5444",
"l. c #6A5648",
"z. c #745443",
"x. c #7A5541",
"c. c #7C5B44",
"v. c #745C4C",
"b. c #7C5C4A",
"n. c #755847",
"m. c #795952",
"M. c #7C624C",
"N. c #7A6749",
"B. c #7C6755",
"V. c #766866",
"C. c #85451B",
"Z. c #864B26",
"A. c #89522A",
"S. c #98562C",
"D. c #834C37",
"F. c #83553B",
"G. c #845B3C",
"H. c #8C5D3C",
"J. c #865534",
"K. c #955B38",
"L. c #A15D34",
"P. c #99643E",
"I. c #88633D",
"U. c #A8663C",
"Y. c #B56C3C",
"T. c #B76935",
"R. c #C8753A",
"E. c #835C44",
"W. c #8A5D45",
"Q. c #835D4B",
"!. c #885747",
"~. c #91584B",
"^. c #835B54",
"/. c #804F4A",
"(. c #8C6245",
"). c #83644D",
"_. c #8C644B",
"`. c #88684A",
"'. c #92654B",
"]. c #986747",
"[. c #846552",
"{. c #8C6654",
"}. c #846954",
"|. c #8B6A53",
" X c #846B5C",
".X c #8C6D5A",
"XX c #88645B",
"oX c #946C52",
"OX c #936C5B",
"+X c #986954",
"@X c #8D7258",
"#X c #94735C",
"$X c #9B745C",
"%X c #9A7357",
"&X c #9D704F",
"*X c #A46B44",
"=X c #AB6C42",
"-X c #A56C48",
";X c #B26E42",
":X c #AA724B",
">X c #B3744B",
",X c #B5794E",
"<X c #BB7A4D",
"1X c #BA7547",
"2X c #AC7C5C",
"3X c #A57657",
"4X c #BB7C53",
"5X c #B37A56",
"6X c #A36856",
"7X c #886B65",
"8X c #8B7566",
"9X c #917361",
"0X c #9C7C65",
"qX c #987968",
"wX c #937771",
"eX c #A77C63",
"rX c #AD7968",
"tX c #C67B49",
"yX c #C37C54",
"uX c #D07F47",
"iX c #BD825B",
"pX c #9C816D",
"aX c #AD8265",
"sX c #AC856D",
"dX c #B88666",
"fX c #A88978",
"gX c #B98C76",
"hX c #B99278",
"jX c #AD9179",
"kX c #D8854C",
"lX c #C48155",
"zX c #C4845B",
"xX c #CC8759",
"cX c #D68A55",
"vX c #D6905D",
"bX c #CB834F",
"nX c #C38A64",
"mX c #CC8C63",
"MX c #C58C69",
"NX c #D18A62",
"BX c #CB936C",
"VX c #D69467",
"CX c #C89676",
"ZX c #D49A74",
"AX c #C58B76",
"SX c #D2A27E",
"DX c #A68785",
"FX c #B89988",
"GX c #B79790",
"HX c #B9A995",
"JX c #BFA6A1",
"KX c #C49584",
"LX c #CC9C90",
"PX c #C9A798",
"IX c #CEAA8E",
"UX c #CCB1A5",
/* pixels */
"S S 9 F G : : 7 0 A 9 O @ : & , 2 < O < 4 3 2 1 O 2     # 8 M o X   A 6 1 2   4 c 8 ; ; 4 4 4 4 9 z   9 2 = s z M v b b G A 4 D ",
"z S q X X 5 : o . ; ; O   q   X     O     O O 2               $ & +         + = - * ; $ ; ; @ 1 9 H 9 = o . $ s , f P M o 9 S D ",
"S 4 ; J s % * v.% y wXe $ * o       o # = .   . $ $ d d N _ _ 6._ ] _ _ K V M * & & .     5 6 1 X o   * l. .> v.V f f J J + A < ",
"H 4 B DXt.e W KXE [ PXW R V.>   .     . . . a B $.0.n.7.r.)./.E.W.oXOXM.n.k.u.%.! n , o X X   :   v h.$ 7XwXa FXu.$ ! fXPXz # 2 ",
"3 S ) DXLX/ i AXp.T hXe 7XDX; & > & . * R 6.c.`.;.G.G.p.,.<.F.J.( / 2.O...a.:.a.N.N.6.n o X   X X Z HXB l.wXg PXI U KXgXz.- X b ",
"9 0 * U rXAXU / dXt jXm 7Xx $ . $ p N 6.`.oXE.=.G.H.2.2./ Q o.2.Z.O.J.,.1.G.*.:.d.1.a.@XB._ o . . & u.%.l.9.z.{.e rXgXX.w * : : ",
"q   > $ i rX5Xi aX! u.&.M . $ % R 6.`.@X`.d.J.p.J.1.,.J.{.'.{.'.&XP.(.p.w.s.i.p.<.'.t.Q :.#Xm.W t t . C &.+.0XI 6XrXi e ! f , , ",
": , n +.i w 6X].m N.C n o . g 0.{.E.s.p.W.'.H.<.W.(.$X#X.X9Xb.n.7.d.`.@X).z.c.).!.2.X.D.F.o.o.~.t.e $ * C C 4.x.~.U F.hXUXB.n o ",
",   %.HXPX[.h z.+.f Z X   _ s.eX/.<.e.e.F.w._.0X#X}.+.d p &   . . $ * p z _ l.[..X{.y.D.W.X.X.t.o.OXW & o n %.{ U dXsXX.B r * s ",
"M . & x N n.wX8.#.n     &.N.F.^ F.+X'.q.s.OX).[ g $ . . o       o . . o . . . $ ) .X0Xx.~ =.Q./.o.~.[.|   X m N {.Q g ' h.B $ ; ",
"* p x 7XXX0.|  .z & s l.OX!.D.,.y.q.t.XXb.) w $ & . o , o X :     8 q       o . $ . g c.@X`.N.+.o.o.r.z.%.,   n m v.FXGXGX7X>   ",
". $ | rX^.m.%. .. * m.^.^ D.+X/ q.OX{.` $ $ $ .   . .       & o .     O @       . $ . . n u.N.>.a.6X!.r.[.+.&   M C t $ y c . 8 ",
"z $ $ % k | R . $ z.XXX.o.D.,.W.fX6.$ $ $ - . o # = . . B %.n.M. Xh.z . . & &   $ $ $ % r p ! @Xa.W.t.y./.b.k.*   ! 8XfX| . . 0 ",
"  + $ } UXk.a $ E {.j.y.6X/.p.$XR p . . o +     o . . R .XrX&X'.).9X9X%.r . $ r ~ a._.G.I.>.Y T oXG.w.w.!.o.n.[ $ . * wX7X7 . 7 ",
"3     v K   $ h +X..;.q.W `.sXm .       O @ # O   . ) OX2X=XU.A.H.G.`.a.N w ~ rXdXdXMXmXmXmX>X6X^ f._.X.q.o.~.6XW t .   .   . = ",
"< O X     & % (.D.X.E.:.N.pXm $ o   o   X   O     r XXhX~.S.tX1XA.J.T % u ].CXnXBXA.L.yXNXNXyXyXP.T d.p.y.y.~.D.{.i $ o     + + ",
"< O   # . . 7.s.,.w.q.:.fX_ . . X X             . d M.#X2XP.bX1XD.$XI u ].BXK.4X=XS.L.=XY.S.S.NXiX&Xh G.(.<.F.e.e._.$ . .   O O ",
"O @     . N z.;.^ e.1.0X%.. =   X     X o     & & .  X|.(.Y.S.C.o.x.u K.nX>X1X1XyXyXzXNXNXtXL.4XCXaX2.I '.s.p.w.p.E.W $ $   < 1 ",
"  2 O   $ h.c...e.;.).Q.*   =   @     1 1     : ; $ 8.oX=.( =XK.2.rXT -XSX=XU.VXyX4XmXmXyXyX*XS.iXnXiXI T _.=.<.;.r.n.% .   1 1 ",
"O     . d n.n.X.s.s.{.r . -   O O X O O < 1 <   . r h +XJ.Y dXH.dX].D.>X=XU.yXNXyX;X5XyX4X4X;X*XA.P.dX1.w E.).c.5.a.[.m .   + 1 ",
"+     . ) 8.a.5.~ qX[ $ $   <       < O < < O   $ u Q ].].3.aXeX5XT C.4XL.4XVXlXyX=X4XyX4X4XdXnXiXU.BXI.* j c.$.a.c.n.8.$ .   O ",
".   & y | 9.x.;.5.9Xy $     2   .     1 <     % 7.eXBXyX5X5XdXBXU.>X*X>XzX,X;XtXtX1XlXyX4XlXzXVXL.U.dX`.h $ k.M.4.z.-.b.a .     ",
"  & & _ n.9.a.4.#X| . ;   # O O + . . . . % ) r.gXZXyXU.U.U.S.O.S.;X=X,XlXlXVXVXyXuXbXtXtXxXmXVXL.iXdX&Xa $ k v.6.4.4.c.R . . . ",
". & $ k.[.r.-.5. XB $         X   & $ . $ E 9XIXAX2X-XC.C.Y.1XvX>XA.A.>X4X1XlXtXtXtXR.T.1XcXcXxXiXY.CXd.% . % $.n.5.E.n.4.. $   ",
". . d }.7.a.' z.v.r & . O 7   O 9   $ * ~ sXCXhX3Xu I J.A.Y.bXkXyX:XZ.P.*XZ.BXyXcXuXuXuXR.kXkXvX>XP.gX-.$ $ . B 9X9.i.r.9.p . . ",
"$ . R  Xr.d...Q.$..     # 0 O O 1 1 & . d.IX`.g % $ j jXI.:XiXvXNXJ.O.6X-XA.4XVXcXcXkXkXkXkXcXxXS.2XoXa . &   d M.a.s.w.6.N . . ",
". . $.).i.s.7.{.x . + + + 7 , 9 6 1 = $ pXhXW % & . . pX#X&X<XvXnX].T ~ oXeX-XdXxXvXuXkXcXkXvX<XP.aX[ $ + . . $ n.d.2.J.a.] . . ",
". . v.b.i.s.e.|.r . . .     & q 6 6 # . pXjXg % .     @.pX&XBXVXnX2Xu w 7.0X].3XA.<XbXvXtXL.*X].3Xu.r +     = . r.W.1.H.x.8.. o ",
". .  Xn.i.1.s.Q.t $ +   . - * & 1 2 . . pX9X$ .   & . . 9.G.,X:X:X<.% w t ] .XeXJ.*XK.*X].'.aX9X6.r . + O O 4 $ -.I.2.H.a.8.. # ",
"  .  X9.;.=.s.7.$ . .   . $ % . . . $ %  Xb.% . - $ . y r.].S.S.].1.w % . $ _ 8.#X3X&X2XaX{.8.m % $ . X O <   $ ~ 3XK.K.w.8.  0 ",
"  &  X6.=.=.E.' t } g.g.@.#.%.-.E { E W XXFXXXW $ % l _.2X5XU.yX2XaX[ $ $   . $ % j W W g * & . . . 2 O < <   $ Q 5XA.3.5.v.= 9 ",
"$ 8  Xa.p.2.'.' $ V L L L _ _ R ' ' ' [ [ l.m.| 0.t.s.].U.=XY.L.-X6Xc.x V J H z r r r % . & . . $ .   < O   + . Y 3XZ.T *.B.-   ",
"# M 8X-.&X(.%X! . .   < O   $ . . . .     .   . % % 2X3X4X1XtXY.*X3X&XE  .L L L } ] } @.@.@.| #._ B.wXV.g.H 7 $ j '.3.F.6.M.#   ",
". s 8X' H.3.(.[ . O O < O   .   .     X     . . . 0XeX*X<XY.T.uX1X:X].Q $ . 4 O . .         . $ % k J F H v , $ U W.X.o...l.=   ",
"  ; 9X*.2.O.G.7.. # O < O   . . .       X   . . B.hX2XiX1X1X1XxXiX,XnXdXR ; 2 O . .         . $ $ $ .   X     $ W s.<.w.9.$.o   ",
"  . 8X7.f.1.s.a.. = @ < < @ . . .         O   . M.eXdX>XzXmXzX4X<X,XzXdXb.$   # .       X       . $ X       . * ~ E.F.W.z.#..   ",
". . B.d.1.2.f.c.$ . O O @ @     .   X O O O   $ t J.5X1X,X*XZXdXU.iXyX5Xt.% = 4 . o   X O < O   . = #   X X . % z.E.,./.9.] . . ",
"> & v.|.O.1.w.`.r .   O O O         X O O X . $ w Z.,XzX5X&X|.(.:X,XY.mXX.$ = #     X   O O O   = : O   X     . OXx.^ w.z._ .   ",
"= $ ] #X^ p.p._.N .   O O O         O O O O . $ e nXVX4XZXaXr r aXBXiXVX<.% . 2   X X   O < O O         O   . a 9Xr.q.w.{.V .   ",
"o . k 9X*.H.1.d.$.$ . #     O       @ @ @ O . % T BXiXZX2Xg . $ m aXmXMX3X%   O         O O   O   O O @     & R qXr.Q.5.}.$ . o ",
"  & .  Xd.=.1.s.}.$ .     #   X   X O @   O % w X.ZXnXhXh % . . . *.iXdXgXt   < O   .       O # O 5 2 O     $ k.E.w.;.OX9.. $   ",
"+   . 8.).=.G.;.#XR . . #   O   X       X = $ g AX2XBX^ % &   o X * p.nX3X0.  O       .     . o @ 6     . . d [.5.r.0.b.B $ .   ",
"    $ N #X:.s.=.c.`.$ . .   O     # X o . % %.Q.W.%X_.w r .     @ . *.:X'.9.O < X   . . .   . . 9 O X   & . 9.[.E.OX{.z.$ $     ",
"  + & % .Xc.=.d.' eX_ . . .   # @ #   . $ 8.GX|.s..Xl $ &   O   X . ~ K.].) . O O     .   . . + #   o . . p N.s.5.7.^.] .     # ",
"  + 8 $ +.0Xr.p.1.).qXp .   +   @     $ % FXgXa..Xl $ >     X   O = *.*XH.... < O     .   .       O . * . a.M.d.~ ~ m.l *     X ",
"<   7 * r 0X@X=.p...#Xk.. .         & $ r.FXeXa.x . + + @ 5 @   @   '.nXP.[ + O < X   . . + + @ + 8 & . ~ @Xi.d.F./.n.$ $   @   ",
"1     - $ [ oXf.=...a..Xd -   + @ O . % hX2X'.E $ 8 2 O @   X   @   H.xX:X~ $ O < @   . o # 2 O o . & * N.1...,.E.{.l . .   1 O ",
"@ 2   > d % Q.3X^ G.<.;.B.* .     . * [ 9X_.U % $     1 6 X       & g nXiXw.. O O       O O O O . . $ c.`.1.,.2.'.OX$ % # O   O ",
"X     = = % g 0XD.Z.A.^ W.{.* $ $ * R 8XqXx $ $ . . o X . + . .   . % 2XaX;.r       @ @ O X   o . % 6.9Xp.p.Z.D.%Xe $     @ O   ",
"  o   o ; $ % [ +X3.K.Z./ 9Xk.& $ 6.FXFXm.% $ . .           .   $ . $ 6.sXs.$ * = : @ O @ X   . $ 9.{.-.^ p.=.+Xu % . L z # . 4 ",
"X   z wXV.z . X u.$X2.D.F.o.M.u.r $ }.FXn.$ * .     X O O 1 + O   o . N pXN.$ . .     5     & * M.|.w.oXe.w.).W $ f l.UX} . .   ",
": + . } DX8XC X & u.eXD.!.Q.! k.M.j t +.jX) + .   X O O O < O O @ O   #.HXjXn.$ . , .     . k c.@X~ W._.-.#X#.    B | x $ . . z ",
"H o c U y w n K o o OX$Xo.o.` 5.7.`.:.t r.8.d . . O X O O < < 3 2     h.fXqXFXwXl.z . . * E c.`.f.O.w.i.b.h.  o P &.v.M.fX] $ o ",
"0 8 wXUXLXFXN.n , + r ^.OXo.5.x.G.*.d.(.[ e ; .       @ 1 < 1 3 6 @ 7 $ * $ % ! ) k % N b.{.1.O.A.J.*.#Xh..   > V { $.`.#XN * . ",
"+ z _ [ X.j Y N.f n . % 7XfXy.5.=.=.=.w.W..X` k $ .   X           o & . r t % w r l z..X_.e.,./ O.>.oX6.  o M _ $.0Xd.Y m * . * ",
"z + y E 9.eXjXj { _ s $ $ [ sX+X1.<.s.e.^ E.Q.n.u.) p . . . . $ . $ . % % % Q -.{.{.b.s.r.e.e.J.P.3X+.    M s 0.e.I I.hXIXl.. . ",
"q > M.UXgXJ.u W.a.$.) x ; $ h %X%XG.>...e.=.<.;.u.a.N.a.4.6.9.9.[ k.M.a.E.@X&XF.s.' ' x.E.r.W.rX+XI + . M J B.h ].-Xi e [ V 4 ; ",
": , V [ u I rX%XW qX` | ) $ p r +.0XjXi...<.E.=.>.=.+.*.:.1.F._.#X`.c.d.p.p.s.(...s.w.` x.gX0X` w $ $ J  .h.` gXU 5X5Xu % $ O 3 ",
": Z d % X.AXgXt .Xn.o.j.| k..   . % ] #XeXc.s.'.w.>.>.p.I.1.^ 2.w.=.w.'.oXd.w.s.i.7.Q.qX7X[ r $ . . z 7Xy HXu aX/ T ZXsXg ; A 1 ",
"v : y j.KXKXu a HXg rXm.E PXn o & $ * r ) c.9X#X).c.:.:.G.,.^ e.p.;.=.*.:.a.c.)..X9XM._ r $ $ . . = DXwX% FXE s.CXi ^ LXDXS A 1 ",
"b X V UXDXB ; g.HXk rXOXw l.q         . $ $ a W a.B.`.@X0X{.7.t.z.b.).B.[.B.v.k.R p $ . . .       = V.) x PX] R UX[ e m.GXS 2 9 ",
", b ;  .z . q K V.d | j.w $   X @ @ . . . . $ * . r * f C ] %.k.8.$.] ) m * $ . $ . . . . # # @ @   $ . d wXk $ %.s & 8 S = #   ",
"; c z A F F : :   & k x c - A < 6 O   4 2 =         X   . . . . . . . .   . . . . . ; o       O   . J & . . % & . . 9 X # 7 & * ",
"c z A F F F 1 5 n , a r c . S 9 3 6 1 9 < = . = .     X   O + . . ; - .     .   & .     X @ 1 X > > 8 ,   f s = = @ 6 b : , s r "
};
