/* XPM */
static char *_4bcfb214858444ef4f3fa3bd0f25508sCmbTFKTOsU5y1Jz[] = {
/* columns rows colors chars-per-pixel */
"32 32 205 2 ",
"   c None",
".  c #040302",
"X  c #0E0502",
"o  c #0C0B05",
"O  c #09070A",
"+  c #0B0A0C",
"@  c #110603",
"#  c #130B06",
"$  c #100708",
"%  c #140B0B",
"&  c #180E0F",
"*  c #190C06",
"=  c #13120D",
"-  c #1D150C",
";  c #140F13",
":  c #1A1011",
">  c #1A1918",
",  c #221713",
"<  c #241B16",
"1  c #261C1B",
"2  c #2A1E1A",
"3  c #2B1C17",
"4  c #2B211B",
"5  c #23201B",
"6  c #37281E",
"7  c #272625",
"8  c #2B2425",
"9  c #2F2F2F",
"0  c #2C2B26",
"q  c #332C24",
"w  c #392D27",
"e  c #3B322B",
"r  c #33322E",
"t  c #3F3C34",
"y  c #3A3838",
"u  c #43352C",
"i  c #463A29",
"p  c #4D3E29",
"a  c #443C34",
"s  c #4C3D32",
"d  c #483D39",
"f  c #4D423C",
"g  c #544534",
"h  c #53453C",
"j  c #534B3D",
"k  c #5A4D3E",
"l  c #4B4946",
"z  c #484848",
"x  c #4D4747",
"c  c #5B4C42",
"v  c #524D47",
"b  c #5D5446",
"n  c #5F564D",
"m  c #5C5A5C",
"M  c #625444",
"N  c #61554B",
"B  c #6B5C4C",
"V  c #6C5A46",
"C  c #715E4F",
"Z  c #665E54",
"A  c #6A5D53",
"S  c #69604F",
"D  c #71604E",
"F  c #6C6054",
"G  c #6B6359",
"H  c #6E6A5F",
"J  c #726455",
"K  c #786757",
"L  c #756C5E",
"P  c #7A6B5C",
"I  c #776957",
"U  c #606062",
"Y  c #6E6A67",
"T  c #776E61",
"R  c #7B6E66",
"E  c #7C766A",
"W  c #7E7569",
"Q  c #7C7A73",
"!  c #797876",
"~  c #82705C",
"^  c #837464",
"/  c #8A7966",
"(  c #81746B",
")  c #857B6C",
"_  c #8C7D6B",
"`  c #847967",
"'  c #837D73",
"]  c #887E74",
"[  c #927F70",
"{  c #8D806F",
"}  c #868174",
"|  c #8A8376",
" . c #948574",
".. c #958B7C",
"X. c #9A8A7A",
"o. c #A1927F",
"O. c #858282",
"+. c #8C8A80",
"@. c #8C8B89",
"#. c #908C80",
"$. c #9A9286",
"%. c #97928C",
"&. c #9C9C9A",
"*. c #929091",
"=. c #A18F81",
"-. c #A39483",
";. c #A69989",
":. c #AA9D8C",
">. c #A39588",
",. c #A39D93",
"<. c #AA9E90",
"1. c #AFA08B",
"2. c #A4A296",
"3. c #ADA293",
"4. c #A3A39D",
"5. c #ABA79D",
"6. c #B5A694",
"7. c #BBA997",
"8. c #B5AB9B",
"9. c #B9AC9B",
"0. c #B7A895",
"q. c #A3A2A1",
"w. c #ACA7A1",
"e. c #ADACA5",
"r. c #A9A7A8",
"t. c #AFAFAD",
"y. c #B3AEA4",
"u. c #B8AEA2",
"i. c #AFB1AE",
"p. c #BDB1A3",
"a. c #B4B1AA",
"s. c #BCB5AB",
"d. c #BBBAAF",
"f. c #B3B0A7",
"g. c #B5B3B3",
"h. c #B7B9B2",
"j. c #BCBBB4",
"k. c #BCBCBA",
"l. c #C1B29E",
"z. c #C4B5A4",
"x. c #C3BAAC",
"c. c #CBBCAC",
"v. c #C4BEB3",
"b. c #C8BFB0",
"n. c #C0BDB8",
"m. c #BEC1B8",
"M. c #CCC1AF",
"N. c #C5C3BD",
"B. c #CDC6BC",
"V. c #CFC8BE",
"C. c #CAC7B9",
"Z. c #D2C5B3",
"A. c #DACCBB",
"S. c #D3C9BF",
"D. c #E0CFBD",
"F. c #C4C4C4",
"G. c #CDCAC3",
"H. c #CCCECA",
"J. c #C6C8C3",
"K. c #D4CDC4",
"L. c #D6CEC5",
"P. c #CFD1CE",
"I. c #D6D2C7",
"U. c #DAD2C4",
"Y. c #D4D2CB",
"T. c #DBD4CB",
"R. c #DED9CE",
"E. c #CFCFD1",
"W. c #D4D5D3",
"Q. c #D7D9D6",
"!. c #DCDAD4",
"~. c #D4D7DA",
"^. c #D6D9DA",
"/. c #DBDCDB",
"(. c #E4D5C5",
"). c #E1D6C9",
"_. c #E3DACD",
"`. c #EADDCD",
"'. c #E2DCD2",
"]. c #E1DED9",
"[. c #DFE0DD",
"{. c #ECE4D7",
"}. c #E5E3DD",
"|. c #EBE4DB",
" X c #F3E4D4",
".X c #F5E8D7",
"XX c #F3EADD",
"oX c #F9EAD7",
"OX c #DBDDE1",
"+X c #DFE1E3",
"@X c #E2E4E6",
"#X c #EAE6E2",
"$X c #ECEAE3",
"%X c #E1E4E9",
"&X c #EDEDEE",
"*X c #F5EEE5",
"=X c #F1ECE8",
"-X c #FCF2E4",
";X c #F4F1EC",
":X c #FBF5EC",
">X c #FFF9EA",
",X c #EFEFF1",
"<X c #FEFAF2",
"1X c #FFFCF4",
"2X c #FFFFFA",
/* pixels */
"                            1 = r 0 o .                         ",
"                        n.N.n.e.Y.a.Q t -                       ",
"                      Y.!.!.}.!.N.a.y.2.} q .                   ",
"                    2X;X$X=X$X#X}.!.a.} 2...q                   ",
"                  ;X#X#X1X1X*X!.R.G.v.$.E Z 5 X                 ",
"                }.:XY.=X1X|.|.!.I.v.s.] j | E o                 ",
"                !.w.|.<X;X'.|.R.G.s.u.<.b H } f #               ",
"                G.|.|.<X:X:X|.T.T.{.s...b S T n #               ",
"              ;Xw.'.<X:XT.M.I.x.S.$.| ` F j A Z q .             ",
"              G.+.I.XXB.u.E E x...u S ` k i J ] d $             ",
"              s.,.V._.8.u...$.oX:.k ` J g S J G f &             ",
"              G.B.R.1X|.U.M.(.-Xc.^ :.-.o. .g b w X             ",
"              R.|.R.XX>X X_.-XA.6.P 7.l.0./ i M ,               ",
"              v._._._.-X(.x.9.{ c 6 / 1. .V g s -               ",
"                |.-X|._.x.A.`..XA. .{ X.I p M N *               ",
"                |._._.).c.oXl.I ~ ;.X.~ ^ B B 6 @               ",
"                =X|.{.U.oXo.g ~ X.M ^ X.J R A 2 @               ",
"                #XG.T.-XD.I o.oXA.;.;.:.R ( A 9 $               ",
"                  U.'.R.7. . XM.Z.z.7.>.c n h w X               ",
"                  }.I.M.0.9.oX0.z.:. .^ F R h 3 X               ",
"                  N.V.U.s.p.M.l.7./ K J [ ( d &                 ",
"                  a.x.U.M.Z.9.o. .V C V ( c 3 $                 ",
"                [.G.y.B.A.C.9.1./ ~ [ K B u 3 $ & $             ",
"          [./.[.!.$XT.d.T.d.9.1.C 7.(.o.s 6 2 1 & & + +         ",
"        H.F.J.Q.[.}.T.I.5.$.3.L X.D.X.h c u 4 1 : 8 $ + + +     ",
"      &.Q.H.F.H.Y.$X$XR.2.} } F ` z.{ g h w 2 1 8 y + O + O     ",
"      N.[.^.H.H.Q.@X$X}.I.d.&.} ) 6.( f e < 1 5 x m ; O + O     ",
"    7 Q.[.[.[.^.Q.E.E.H.Q.G.$.Q G T j q 5 4 y v ! O.> O         ",
"  . y +X^.+X+X+XOXOX%XW.!.P.4.5.E H l a t l Y O.*.&.7 O ;       ",
"  . z &X^.+X+X+X~.~.OX~.W.J.g.G.d.2.+.Q ! Q @.&.q.r.9 . O O     ",
"  + m &XOX~.+XOX%XOXOX~.E.F.m.W.J.h.e.4.q.4.q.t.t.i.t . + =     ",
"  + U &XOX~.+X~.~.~.~.OXF.g.m.[.P.C.m.h.h.h.i.k.k.k.z . o >     "
};
