/* XPM */
static char *_345e63e10544afd882e4c62d06a6cf3ys2XXFs09oYfkQz1[] = {
/* columns rows colors chars-per-pixel */
"64 64 203 2 ",
"   c #070000",
".  c #0C0000",
"X  c #130100",
"o  c #1C0400",
"O  c #150905",
"+  c #1D0902",
"@  c #160B09",
"#  c #1D0C09",
"$  c #220500",
"%  c #290500",
"&  c #230B02",
"*  c #2A0D03",
"=  c #230D0A",
"-  c #2B0E09",
";  c #310700",
":  c #310C03",
">  c #261104",
",  c #2C1105",
"<  c #2D1807",
"1  c #25130C",
"2  c #2C130B",
"3  c #2E1A0E",
"4  c #311206",
"5  c #32150B",
"6  c #38160D",
"7  c #331A0D",
"8  c #3A1A0E",
"9  c #251412",
"0  c #2C1613",
"q  c #271915",
"w  c #2D1A14",
"e  c #261E18",
"r  c #2C1D1A",
"t  c #331612",
"y  c #391610",
"u  c #341C13",
"i  c #3A1D13",
"p  c #321C1A",
"a  c #3A1E18",
"s  c #2E211A",
"d  c #362114",
"f  c #3C2116",
"g  c #35231B",
"h  c #3D241C",
"j  c #3D291D",
"k  c #362221",
"l  c #3B2622",
"z  c #3D2A23",
"x  c #3D2928",
"c  c #3F3125",
"v  c #461504",
"b  c #4C1907",
"n  c #4D1B0A",
"m  c #531E0B",
"M  c #401E14",
"N  c #411F18",
"B  c #4F200C",
"V  c #55220E",
"C  c #59220E",
"Z  c #422316",
"A  c #4A2515",
"S  c #42251B",
"D  c #4B261C",
"F  c #432A1E",
"G  c #4C2B1D",
"H  c #542414",
"J  c #522B1D",
"K  c #4C301F",
"L  c #642E16",
"P  c #652C18",
"I  c #6B2E19",
"U  c #6B331D",
"Y  c #412621",
"T  c #442B23",
"R  c #4B2D23",
"E  c #432D2A",
"W  c #4A2E29",
"Q  c #522720",
"!  c #532D23",
"~  c #502F2A",
"^  c #443125",
"/  c #4C3226",
"(  c #45332B",
")  c #4C342B",
"_  c #4D392D",
"`  c #533325",
"'  c #5B3425",
"]  c #543925",
"[  c #5D3A27",
"{  c #56352A",
"}  c #51352D",
"|  c #55342D",
" . c #53352B",
".. c #5C372F",
"X. c #5B362A",
"o. c #51392A",
"O. c #513C2B",
"+. c #573C2B",
"@. c #53392D",
"#. c #5D3B28",
"$. c #5B3A2C",
"%. c #453331",
"&. c #4C3631",
"*. c #473835",
"=. c #4D3A33",
"-. c #4D3C3A",
";. c #513730",
":. c #523631",
">. c #5C3730",
",. c #523932",
"<. c #553B34",
"1. c #553C35",
"2. c #533C33",
"3. c #5A3B32",
"4. c #5B3F33",
"5. c #5F3F30",
"6. c #5C3D33",
"7. c #543E3A",
"8. c #5A3F39",
"9. c #623524",
"0. c #6C3422",
"q. c #643924",
"w. c #6B3C26",
"e. c #603628",
"r. c #633B2B",
"t. c #6C3D2B",
"y. c #703522",
"u. c #743D25",
"i. c #723E2B",
"p. c #793F29",
"a. c #643731",
"s. c #623D33",
"d. c #683E30",
"f. c #693E33",
"g. c #633F39",
"h. c #723F31",
"j. c #5F402E",
"k. c #544135",
"l. c #5C4032",
"z. c #5C4235",
"x. c #55413A",
"c. c #5D4639",
"v. c #5C433A",
"b. c #5D493C",
"n. c #6D402C",
"m. c #764126",
"M. c #784027",
"N. c #73422C",
"B. c #7A432C",
"V. c #614131",
"C. c #614436",
"Z. c #644235",
"A. c #6C4234",
"S. c #634837",
"D. c #634835",
"F. c #64443B",
"G. c #6C443A",
"H. c #64493D",
"J. c #68483D",
"K. c #6B4A3C",
"L. c #734433",
"P. c #784433",
"I. c #734837",
"U. c #7C4935",
"Y. c #71463A",
"T. c #744B3C",
"R. c #7B4C3C",
"E. c #6D503E",
"W. c #72513E",
"Q. c #7F503C",
"!. c #5F4842",
"~. c #644B42",
"^. c #6A4C42",
"/. c #6A4F48",
"(. c #734E44",
"). c #7D4E41",
"_. c #6F5243",
"`. c #67504A",
"'. c #6C524D",
"]. c #745345",
"[. c #7D5744",
"{. c #7E5142",
"}. c #7B5844",
"|. c #77534A",
" X c #795348",
".X c #844B35",
"XX c #824E3B",
"oX c #884E3A",
"OX c #82533D",
"+X c #8B523D",
"@X c #804F41",
"#X c #845444",
"$X c #885746",
"%X c #855946",
"&X c #8B5845",
"*X c #845649",
"=X c #835B4B",
"-X c #8A5B4D",
";X c #845E53",
":X c #8A5D51",
">X c #876355",
",X c #8B6254",
"<X c #856259",
/* pixels */
"' ] { | o.o.] W.[.#.)  .|  .! K ] ] ` >./ ` V.W.W.r./ o.| | ' ] ] ` >.X.` { r.{.[.[ |  .| { ] K ] ] _ 2.W ] t.R.{.r.|  . . .+.] ",
", C.Z % $ 2 * * * V.i * * * , $ , C.i % > 5 * , * D.f * * , , , , D.f % * 4 * % * s.8 * * * > & > z.f $ 2 4 ; ; ; Z.i & % , , > ",
"X ) $ f 1.} `  .o o.o f :./ o.) X ) $ u :.^ R ] o { o h <.) / / X o.$ h <./ X.] o | o f ,./ ) / X / & u _ ^ / { $ { o j <.R / ] ",
". _ = 2.f $ $ 4.$ / & 2.u o & z.+ ) = _ f o $ l.$ o.$ 1.i o & c.& / & 1.a & $ 4.$ _ * ,.p o & c.$ ) $ =.g o & z.$ ) & 1.i o * J.",
". _ o 1 X i o ` & O.+ & X h X } + ( o & X i o ) $ +.o $ X g X O.$ } o = X f X _ + ] o & o h o ) $ } X & X w o / + O.o & X h o ..",
". =.^ d Z (.$ { + O.^ u j ~.$ } + ) ^ r h v.$ R o 2. .i h ^.+ k.o } / d S ^.+ _ + O.) i S ~.$ <.% :.E d g b.+ ^ + O.) d h ^.% s.",
". > g u a 6 X <.& > i d f 1 X @.o + u w i 2 X O.o $ h i f 3 X { o $ d i h 3 X _ + = i i a 2 X @.o = w d u w X ,.+ & f u d 7 X ..",
"^ z j z Y Y T g.T f p j j j F H.E z g g g a h F.) Z i F j j T ^.) F j j h z j b.W g d z k j Y H.W f g s g d f b./ h f j j F F ^.",
"r g s s w T v.H.H.F.a p p s r u r s e e w l 8.F.^.F.Y u p g p r r g s g w z v.F.~.F.l t p s r w p r e s w l 8.F.^.F.T t s g g 3 ",
"X X   . o T 5 $ $ 2 W = . . . . X .   X # W * $ % - T = . . . X X .     o W 5 $ $ - W =   . X . .       # W - % % * T + .   . X ",
"% i o X -.X 2 i i 5 o 7.= X i * $ f o o &.X 2 a a u o ( & X Z : $ i o + &.X 5 i i 5 o -.# X i % $ i o @ =.X 1 i Z t o &.= X M ; ",
"R.<X .z w t ` r.r.R 7 2 Y W ;XL.G.=XW k w t R s.s.! a 2 ) / :XT.T.<X/ z 0 i ~ r.a.! t 2 z T >XI.G.:X( d 9 0 ! r.r.R f 1 W ) ,X#X",
"Y.Y.6.R % ! f.w.t.r.G , S z.G.L.Y.f.8.Y $ R n.N.w.t.` , Y s.Y.R.I.I.>.T * ` t.w.t.w.R : Y 6.A.A.I.f.6.Y & R t.w.t.t.{ 2 T 6.L.P.",
"m R.g.$ 4 X.i.p.p.i.] 5 o s.{.n v ).G.$ , ' N.y.y.B.r.7 $ F.).n b Q.F.$ 5 ` i.B.u.i.` 5 o Z.).n b R.F.o * ` N.N.p.N.X.7 o f.@XC ",
"0.P.f.N 5 ! N.u.u.t.{ & a g.h.0.0.i.g.y , ` t.B.B.N.{ * N f.i.u.0.N.A.N - X.t.m.i.t.{ & a g.h.y.0.i.A.u * { t.p..Xw...& a f.t.u.",
"@X:Xs.~ 5 S q.t.t.r.S 1 &.>.:XXXXX:Xs.) 2 i ' t.n.s.h 2 W >.-XOX#X-X6.:.1 Z r.t.t.r.h > &.>.:XR.).:X>./ - i ' t.t.t.S 1 W >.:XXX",
"h !.= 0 E $ a / R S + z r # x.Z u 1.1 9 E o u R / f o E q # v.i i v.1 q E o i R R h + l r = k.h u 8.1 1 E o u R R N $ %.e # v.Z ",
". . . . x x $ $ $ o z k . . .   . .     l x o o o $ z E   . . . . .     l z & o $ $ k z .   . . . .     l z o o $ o k x .   X X ",
"& o * o o h >.Q ! e.R o o & & o > + + & o S >.! ! ..h o & > + o * o & $ o h ..J ! ..R o & = + o = + $ & o S ..! ! ..S o o & & o ",
"2.1._ <...! X. XG.' / ]  .o.2.b.=.=.o.@. .` ..(.Z...W O.{ /  .~.2.1.@.@.} ` s.(.Y.X.R @.`  .1.v.&.=.O.X.` ` #.].F.{ W  .X. .2.b.",
". o 2 $ % * X _ + o , , * & X ( # o , % < & X 2.+ o > * * $ X 7.+ o & $ * $ X O.$ o 4 * * % X ( = o , * 4 $ X <.o & & * * % o x.",
". _ x./ / b.o =.+ _ l./ ) 1.o &.o ) v.` } H.o =.+ ) ^ o. .F.o 1.o =.v./ / F.+ =.# _ 4./ / v.o &.@ &.8. .{ H.o _ o _ ) / | z.o 8.",
"X ( O . . _ + _ O _ o X X =.o ( O _ = X X O.+ ) o 2.+ . X &.+ ,.o ) + X X _ O _ + ) o X X =.+ ( o ) + . o 2.+ _ + 2.o X X ,.$ <.",
". ( # *.1 X . ^ + ^ + _ 1 . X ) + =.+ %.= X X _ + _ + ) = X X ,.o ) # ( 1 X X / + ^ o =.= . X ) + _ + ( = . X _ o _ # ) = X X 4.",
"X &.o ) x._ =.c.o =.o ( v.) ) 8.X &.& ^ x.( _ x.X _ + ( k.) / b.X &.o ) x.) _ k.o ,.o ) x.&.( v.o _ + ^ !.^ _ x.X =.o ^ 1.) / H.",
"X <.2 o , $ , $ o  ., o , & * & X <.> o * - * o X _ 1 X > > & * X 4.- o > , * $ X | , X - & , & X =.2 o & > * $ X } 2 o 1 * , $ ",
"O.k.2.,.) R r.A.Y.f.W  .) / ) / _ k.=._ } R ..G.T.Z./ +.o.^ / ) _ z.=._ @.R ..Y.Y.f.R } / / ( ^ _ k._ _ o.R X.A.T.Z.` <.) _ o.] ",
"o X o o o R Q ! D ` R X o o X X + . o o o R ! D G  .R o O O o o o X + o o D | G D | R X o + X o X X o X o G ! J G ' R o o o X X ",
"  . . . %.p o + $ + k W . . . X . . . . E a o $ o o f E .   X . . .   . E p o + & o g W X   . X X . . . W u o $ $ $ p E   . X . ",
"T ~.= p l $ z ) ) z o Y r 0 ~.a F '.w p k $ h _ O.j & Y p w ^.D S /.9 0 x + h _ _ h o x r 1 !.Y T '.0 p h & h ` o.Y = Y w 9 ^. .",
"XX:Xf.W - S ' t.r.r.f 1 :.>.*X$X&X%XF.W - a r.q.r.[ F 1 W f.#X&X#X*Xs.W - i r.r.r.r.S - :.>.*X$X$X%XG.W , i r.w.t.[ h 1 } V.[.#X",
"y.h.a.y * { w.u.u.w.] - 5 f.h.0.P P.a.6 *  .w.m.u.q.+.2 5 f.h.I y.P.s.8 % X.w.u.u.w.X.- 5 f.P.U L P.a.6 % ] q.N.u.q.X.2 5 f.N.U ",
"H R.G.% 6 { N.u.m.w.! 5 % f.).m n P.G.% , K w.m.m.n.] 5 % f.XXm m U.G.% 5 ' N.m.m.n.] 4 $ G.R.C b R.A.$ * ` w.u.m.w.] 5 % f.R.V ",
"P.Y.a.~ , ` w.N.N.t.R % W >.Y.{.#XY.s.T < G q.w.N.t.R * W s.Y.@XR.Y.4.W * ` t.N.N.r.R $ R ..Y.@X*XI...R > G q.m.N.t./ , W >.A.Q.",
"G.<XE z 5 2  ...X.` 0 9 E W <Xf.g.;XY z 1 2 / q.r./ 3 0 x T <Xa.f.<X^ x w t ` ' #.` w 0 z W <Xf.s.<Xz x q < G [ #.` < 9 x E ;Xf.",
"$ 3 X X 1.= * y 7 + = -.X X t % % t . O 7.& $ 5 8 , = -.o X * % $ 5 X O -.& & i 5 $ + *.O . t $ % t . O -.& % 5 8 , * x.. X - $ ",
".     . $ Y 5 % % 7 W $     X . X .     X W i % % 6 W $     X . . . .   + S 5 % % i / + .   . X . X   . X W y % % 6 ) X .   X X ",
"( z c E h  .F.(. XJ.W Y ^ z E j T j c ( Y W G. X(.F.W Y z ^ ^ ^ ^ E z ^ z / G. X XZ.^ z z z E z ^ j c ^ z W ^. X(.s.W Y z ^ ^ ^ ",
"3 c.F 4 5 , % 2 2 z.h , 2 2 2 > u c.j < 3 < * , 6 4.S 3 < 7 7 2 i b.R , < 1 * - 2 z.g < 2 5 5 - 5 b.S < 5 2 , , 5 v.h 3 < 4 7 t ",
"X / + 7 W / / Y X =.o 7 / S / T . ) o 2 ^ T Y W X <.o 7 / T S W X ) $ 5 / / / F X _ o < / F R Y X _ o 2 T E F ^ X <.o 7 / T F R ",
". =.# k.z - 0 v.= _ o 1.g = 2 c.+ ) O =.j = 2 b.$ ,.+ x.g > , b.$ :.# x.z > 2 z.& / + k.z + 0 ~.& _ # =.g & - ~.$ :.+ x.z 1 1 J.",
". _ o 2 X 0 X &.o _ = 1 X u X ) + ( + 1 . w X W $ &.o > . r X <.o ) + 9 X 7 X ) o _ + 1 X r X ) o ( o 1 X w X ) $ &.+ > . t X z.",
"  1.T 5 i J.& _ & 2.j , i ~.$ -.+ _ h , 7 v.$ ) & O.F < f _.o =.o =.T 5 8 H.o 1.& k.F , 7 ^.$ <.o ,.Z , u c.o _ + ,.T < i ^.o <.",
"X 1 F S F 7 X } o < F S G 6 X =.o > S f h u o } o 4 T Z Z 8 X 4.X 2 G f S f X  .o < F F G 7 X } o 1 F f f d X  .o 5 G Z A i X 4.",
"f h i f f f i ..S 5 4 d i 8 f J.S 7 5 i 7 3 7 Z.A 5 7 d i f M K.R i i i u d 8 Z.A 7 < d d 7 f J.Z 7 5 u r 7 8 V.A 7 3 d i f S K.",
"j j z Y j z F.(.^.J.Y j j h f f Z z g g j d C.K.(.J.F d z Y S h h Y Y z z T F.G.K.D.z s z j F f h Y g g k d Z.K.W.J.Y g z j S f ",
"        X Y u = & t / @       . .       O E w & & 0 x o     .   .       . x u - * t ( O                 @ E t $ % t T o     . . ",
"o q   O *.= * 7 u & # -.O X 9 o o w   O *.+ $ u i 0 o &.@ X 0 & o q   O *.# - y t - o x.O   1 O o q   O &.= o i i 3 o =.@ . 0 = ",
"N.,XT x t t Q e.e.` 1 w z z =Xt.t.=XW k 9 - J ' q.! i w T W :XL.A.:XT k r t Q e.' ! 2 r z h ;Xr.r.=X^ k 9 5 Q e.e.! t r z T ,XI.",
".XL.>.R - ! t.i.u.9.W - Y s.L.U.XXt.6.W - W f.u.w.t.~ - W s.p.oXoXh.6.W * R t.i.i.q.W & Y s.I.R.OXt.6.T % R f.i.t.t.! - W f.P..X",
"m R.G.% - ' i.u.u.w.' , o Z.R.n v ).F.$ - ' i.u.u.t.r.2 % F.R.n n ).J.% - X.t.u.u.t.` 4 $ F.).n v (.J.$ : | t.p.u.i...5 $ f.R.H ",
"q.f.s.a 5 X.N.p.N.n.{ , 5 Z.f.9.9.f.8.t - ! h.p.B.N...: i >.L.0.9.f.s.i : ' L.p.B.t.X.2 5 s.t.' ' A.s.5 : ! P.p.B.P.' 4 6 s.f.i.",
"#X*Xg.} - Q X.t.t.r.Y & :.g.-X.XXX%X6.) - Z ` t.A.V.F - W s.*XXX+X$XZ. .* G r.t.t.r.D $ } r.-X.XXX*Xl. .* h ` t.I.r.T > ) s.#X.X",
"J G.t p E $ D ` ! Q = z p - G.Q Z J.- p E o Z ` ` Z = Y t 5 T.J H K.5 3 E & S ` ! R $ z i - Z.J A F., r z o h ` / S + c u 1 K.J ",
". O .   %.p o = $ o r x .   X     . .   x p o o & o d ( . . . . . . .   ( r o $ $ + u E   . X       .   E d o o $ o s (   . X   ",
". . . X X l ) f h ) ( . o X X . O . X O X z _ j h _ x . . X X . . . . X X j ) j h ) E X O . X . . . O X . z _ Y h _ l X o . X X ",
"k.k._ =.2./ l._._.z./ _ k._ O.v.1.-.=.k.,._ 4.].^.z./ _ -.2.<.z.k.k.-.-.2._ 6.].K.s._ 2.7.&.2.v.1.2.&.1.1.} z.]._.4.o.=.,.2.@.F.",
"o & > & & * o X.* o , & * & $ / * $ * & & % o X.% $ & * $ $ $ z.- o & - $ * $ @.* $ * & $ * $ ! & + , * * $ o +.% o $ * % & $ l.",
". ) 2.R / l.o { $ / 6. .) 4.X  .$ T 4.@...F.o <.$ /  . .{ X.o 2.o W 4.) R 6.o | $ / 6.} } <.o } & T 4.<.<.z.o X.& / ` ) { 3.o 3.",
"  _ & o o X.$ } $ O.% o o 4.o / o O.& o o X.% / $ { $ o o z.$ <.o _ * o o 4.$ @.$  .- o o <.$ ( o _ $ o o @.$ / o o.* o o z.$ <.",
". ) # Y & o X W $ T & ^ = o X ) + ) + F + o X ] o l.+ F $ X X O.+ ^ & E $ o X / $ / $ T & o . o.+ _ & F $ o X ] o { $ W $ X X +.",
"X ) & =.v.R / J.$ ` & ) <.T / F.o _ & _ c.G / z.o { & / k./ / S.+ / + ,.v.T / C.o ` + _ k.T ^ D.o { & _ z.R R j.$ ] & } 4.W K K.",
"X ` * o - 4 7 % o | & o , 7 * % o ` $ o , 4 5 % X  .& + , , 4 * o  .% o 5 - 4 * o } % o 5 5 * * o / $ o 2 5 4 & X  .$ $ 5 * 4 : ",
"X.K.6.{ ` { { X.{ F.X.] ` G ` ` ] J.Z.{ | { | | X.H.4.@.{ ' ` { { K.3.>.~  ...] { J.>.:.| R J ` ] J.Z.| | |  . .4.F.v.} | X.J ' "
};
