/* XPM */
static char *_5183ff501c040e78e147dc4fa5566a2Lnt42k85TfqmJALG[] = {
/* columns rows colors chars-per-pixel */
"64 64 6 1 ",
"  c #010103",
". c #020003",
"X c #030104",
"o c #020204",
"O c #040205",
"+ c #050306",
/* pixels */
"................oooooooooooooOoOoooooooooooooooooooooooooOoOoOoO",
"................ooooooooooooOoOoooooooooooooooooooooooooOoOoOoOo",
"................oooooooooooooOoOoooooooooooooooooooooooooOoOoOoO",
"................ooooooooooooOoOoooooooooooooooooooooooooOoOoOoOo",
"XXXXXXXXXXXXXXXXoOoOoOoOoooooOoOoOoOoOoOoOoOoOoOoooooooooOoOoOoO",
"XXXXXXXXXXXXXXXXOoOoOoOoooooOoOoOoOoOoOoOoOoOoOoooooooooOoOoOoOo",
"XXXXXXXXXXXXXXXXoOoOoOoOoooooOoOoOoOoOoOoOoOoOoOoooooooooOoOoOoO",
"XXXXXXXXXXXXXXXXOoOoOoOoooooOoOoOoOoOoOoOoOoOoOoooooooooOoOoOoOo",
"XXXXXXXXXXXXXXXXoOoOoOoOoooooOoOoOoOoOoOoOoOoOoOoooooooooOoOoOoO",
"XXXXXXXXXXXXXXXXOoOoOoOoooooOoOoOoOoOoOoOoOoOoOoooooooooOoOoOoOo",
"XXXXXXXXXXXXXXXXoOoOoOoOoooooOoOoOoOoOoOoOoOoOoOoooooooooOoOoOoO",
"XXXXXXXXXXXXXXXXOoOoOoOoooooOoOoOoOoOoOoOoOoOoOoooooooooOoOoOoOo",
"XXXXXXXXXXXXXXXXoOoOoOoOoooooooOoOoOoOoOoOoOoOoOoooooooooOoOoOoO",
"XXXXXXXXXXXXXXXXOoOoOoOoooooooOoOoOoOoOoOoOoOoOoooooooooOoOoOoOo",
"XXXXXXXXXXXXXXXXoOoOoOoOooooooo.oOoOoOoOoOoOoOoOoooooooooOoOoOoO",
"XXXXXXXXXXXXXXXXOoOoOoOooooooo.oOoOoOoOoOoOoOoOoooooooooOoOoOoOo",
"XXXXXXXXXXXXXXXXXXoooooooooooooo....oooooooooooooOoOoOoOoOoOoOoO",
"XXXXXXXXXXXXXXXXoXoooooooooooooo....ooooooooooooOoOoOoOoOoOoOoOo",
"XXXXXXXXXXXXXXXXooooooooooooooooo.oooooooooooooooOoOoOoOoOoOoOoO",
"XXXXXXXXXXXXXXXXoooooooooooooooo.oooooooooooooooOoOoOoOoOoOoOoOo",
"XXXXXXXXXXXXXXXXooooooooooooooooo.o.oooooooooooooOoOoOoOoOoOoOoO",
"XXXXXXXXXXXXXXXXoooooooooooooooo.o.oooooooooooooOoOoOoOoOoOoOoOo",
"XXXXXXXXXXXXXXXXooooooooooooooooo.o.oooooooooooooOoOoOoOoOoOoOoO",
"XXXXXXXXXXXXXXXXoooooooooooooooo.o.oooooooooooooOoOoOoOoOoOoOoOo",
"XXXXXXXXX...XXX...o.o.o.o.o.o.o.o.o.o.o.oooooooooOoOoOoOoOoOoOoO",
"XXXXXXXXX...XXX..o.o.o.o.o.o.o.o.o.o.o.oooooooooOoOoOoOoOoOoOoOo",
"XXXXXXXXX...XXX.o.o.o.o.o.o.o.o.o.o.o.o.oooooooooOoOoOoOoOoOoOoO",
"XXXXXXXXX...XXX..o.o.o.o.o.o.o.o.o.o.o.oooooooooOoOoOoOoOoOoOoOo",
"XXXXXXXXX...XXX.o.o.o.o.o.o.o.o.o.o.o.o.oooooooooOoOoOoOoOoOoOoO",
"XXXXXXXXX...XXX..o.o.o.o.o.o.o.o.o.o.o.oooooooooOoOoOoOoOoOoOoOo",
"XXXXXXXXX...XXX.o.o.o.o.o.o.o.o.o.o.o.o.oooooooooOoOoOoOoOoOoOoO",
"XXXXXXXXX...XXX..o.o.o.o.o.o.o.o.o.o.o.oooooooooOoOoOoOoOoOoOoOo",
"OoOoOoOoOoOoOoOoooOoOoooOoOoOoOoo.oOoOoOoooOoOoooOoOoOoOoOoOoOoO",
"oOoOoOoOoOoOoOoOoooOoOoooOoOoOoO.oOoOoOoooOoOoooOoOoOoOoOoOoOoOo",
"OoOoOoOoOoOoOoOoooOoOoooOoOoOoOooooooOoOoooOoOoooOoOoOoOoOoOoOoO",
"oOoOoOoOoOoOoOoOoooOoOoooOoOoOoOooooOoOoooOoOoooOoOoOoOoOoOoOoOo",
"OoOoOoOoOoOoOoOoooOoOoooOoOoOoOooOoOoOoOoooOoOoooOoOoOoOoOoOoOoO",
"oOoOoOoOoOoOoOoOoooOoOoooOoOoOoOOoOoOoOoooOoOoooOoOoOoOoOoOoOoOo",
"OoOoOoOoOoOoOoOoooOoOoooOoOoOoOooOoOoOoOoooOoOoooOoOoOoOoOoOoOoO",
"oOoOoOoOoOoOoOoOoooOoOoooOoOoOoOOoOoOoOoooOoOoooOoOoOoOoOoOoOoOo",
"OoOoOoOoOoOoOoOoOoOoOoOoOoOoOoOooooooooooOoOoOoOoOoOoOoOoOoOoOoO",
"oOoOoOoOoOoOoOoOoOoOoOoOoOoOoOoOooooooooOoOoOoOoOoOoOoOoOoOoOoOo",
"OoOoOoOoOoOoOoOoOoOoOoOoOoOoOoOooooooooooOoOoOoOoOoOoOoOoOoOoOoO",
"oOoOoOoOoOoOoOoOoOoOoOoOoOoOoOoOooooooooOoOoOoOoOoOoOoOoOoOoOoOo",
"OoOoOoOoOoOoOoOoOoOoOoOoOoOoOoOooOoOoOoOoOoOoOoOoOoOoOoOoOoOoOoO",
"oOoOoOoOoOoOoOoOoOoOoOoOoOoOoOoOOoOoOoOoOoOoOoOoOoOoOoOoOoOoOoOo",
"OoOoOoOoOoOoOoOoOoOoOoOoOoOoOoOooOoOoOoOoOoOoOoOoOoOoOoOoOoOoOoO",
"oOoOoOoOoOoOoOoOoOoOoOoOoOoOoOoOOoOoOoOoOoOoOoOoOoOoOoOoOoOoOoOo",
"OoOoOoOoOoOoOoOoOoOoOoOoOoOoOoOoOoOoOoOoOoOoOoOooOoOoOoOoOoOoOoO",
"oOoOoOoOoOoOoOoOoOoOoOoOoOoOoOoOoOoOoOoOoOoOoOoOOoOoOoOoOoOoOoOo",
"OoOoOoOoOoOoOoOoOoOoOoOoOoOoOoOoOoOoOoOoOoOoOoOooOoOoOoOoOoOoOoO",
"oOoOoOoOoOoOoOoOoOoOoOoOoOoOoOoOoOoOoOoOoOoOoOoOOoOoOoOoOoOoOoOo",
"OoOoOoOoOoOoOoOoOoOoOoOoOoOoOoOoOoOoOoOoOoOoOoOooOoOoOoOoOoOoOoO",
"oOoOoOoOoOoOoOoOoOoOoOoOoOoOoOoOoOoOoOoOoOoOoOoOOoOoOoOoOoOoOoOo",
"OoOoOoOoOoOoOoOoOoOoOoOoOoOoOoOoOoOoOoOoOoOoOoOooOoOoOoOoOoOoOoO",
"oOoOoOoOoOoOoOoOoOoOoOoOoOoOoOoOoOoOoOoOoOoOoOoOOoOoOoOoOoOoOoOo",
"OoOoOOOOOOOOOOOOOoOoOoOoOoOoOoOoOoOoOoOoOoOoOoOoOoOoOoOooOOoOOOO",
"OOoOOOOOOOOOOOOOoOoOoOoOoOoOoOoOoOoOoOoOoOoOoOoOoOoOoOoOOooOOOOO",
"OOOoOOOOOOOOOOOOOoOoOoOoOoOoOoOoOoOoOoOoOoOoOoOoOoOoOoOOoOoOOOOO",
"OOOOOOOOOOOOOOOOoOoOoOoOoOoOoOoOoOoOoOoOoOoOoOoOoOoOoOOOOoOOOOOO",
"OOOOO+OOOOOOOOOOOOOOOOOOOOOOOOOOOOOOOOOOOOOOOOOOOOOOOOOOOOOOOOOO",
"OOOO++OOOOOOOOOOOOOOOOOOOOOOOOOOOOOOOOOOOOOOOOOOOOOOOOOOOOOOOO+O",
"OOOO++OOOOOOOOOOOOOOOOOOOOOOOOOOOOOOOOOOOOOOOOOOOOOOOOOOOOOO++++",
"OOOOOOOOOOOOOOOOOOOOOOOOOOOOOOOOOOOOOOOOOOOOOOOOOOOOOOOOOOOO++++"
};
