/* XPM */
static char *f6599f254b0b443ff3b65bee92124b69n9uVYkC7I1qUo2tw[] = {
/* columns rows colors chars-per-pixel */
"64 64 105 2 ",
"   c None",
".  c #191719",
"X  c #1B1B1C",
"o  c #201F20",
"O  c #242224",
"+  c #282726",
"@  c #292827",
"#  c #2D2B2B",
"$  c #302F2D",
"%  c #312E30",
"&  c #353434",
"*  c #393636",
"=  c #393836",
"-  c #363638",
";  c #3A3738",
":  c #3C3B3A",
">  c #413F3D",
",  c #41403F",
"<  c #444343",
"1  c #494746",
"2  c #4A4847",
"3  c #4A4748",
"4  c #4D4B4A",
"5  c #504E4D",
"6  c #52514E",
"7  c #555352",
"8  c #585655",
"9  c #5B5956",
"0  c #5E5D5A",
"q  c #615E5D",
"w  c #62615E",
"e  c #656562",
"r  c #686663",
"t  c #6A6966",
"y  c #6D6C69",
"u  c #716E6B",
"i  c #73716E",
"p  c #78756F",
"a  c #767572",
"s  c #797672",
"d  c #7C7A75",
"f  c #7E7C7A",
"g  c #807C77",
"h  c #817E7A",
"j  c #83827D",
"k  c #89857E",
"l  c #868581",
"z  c #898682",
"x  c #8C8A86",
"c  c #8E8D89",
"v  c #908D86",
"b  c #918E8A",
"n  c #93918D",
"m  c #98958F",
"M  c #969592",
"N  c #999692",
"B  c #9C9A94",
"V  c #9E9C99",
"C  c #A19D97",
"Z  c #A19F9A",
"A  c #A4A29C",
"S  c #A9A59F",
"D  c #A6A4A1",
"F  c #AAA6A2",
"G  c #ACAAA4",
"H  c #AFADA9",
"J  c #B1ADA6",
"K  c #B2AEA9",
"L  c #B4B2AD",
"P  c #B9B5AE",
"I  c #B7B5B1",
"U  c #BAB6B1",
"Y  c #BCB9B4",
"T  c #BFBCB9",
"R  c #C1BDB6",
"E  c #C1BEB9",
"W  c #C5C2BC",
"Q  c #C8C5BE",
"!  c #C5C4C1",
"~  c #CAC7C1",
"^  c #CDCAC4",
"/  c #CFCDC8",
"(  c #D1CDC7",
")  c #D1CECA",
"_  c #D5D2CC",
"`  c #D8D5CE",
"'  c #D7D4D0",
"]  c #DAD6D1",
"[  c #DCD9D3",
"{  c #DEDCD9",
"}  c #E0DED7",
"|  c #E1DEDA",
" . c #E3E2DC",
".. c #E8E5DF",
"X. c #E6E5E1",
"o. c #E9E6E3",
"O. c #EBEAE5",
"+. c #EFEDE9",
"@. c #F1EFE7",
"#. c #F0EEEA",
"$. c #F3F2ED",
"%. c #F5F5F1",
"&. c #F8F7F3",
"*. c #FAFAF6",
"=. c #FEFEFC",
/* pixels */
"                                                                                                                                ",
"                                                                                                                                ",
"                                                              M I D n                                                           ",
"                                                          E %.=.=.=.=.=.!                                                       ",
"                                                        _ o.$.=.*.*.$.*.=.I                                                     ",
"                                                      T o.=.=.=.=.=.=.=.=.*.                                                    ",
"                                                      ^ O.%.=.+.=.) ! o.^ C j                                                   ",
"                                                      ~ %.%./ / c X > A 7 ;                                                     ",
"                                                      P | ..a N T 3 M I 4 M V                                                   ",
"                                                      g Y ( Y C [ X.=.X.s G                                                     ",
"                                                        f P I l D 7 s H G M                                                     ",
"                                                            4 o s T x n M A                                                     ",
"                                                            t 4 ; a D C j d                                                     ",
"                                                          B Y W H j n N c I H                                                   ",
"                                                          c z N F Y L L I D d                                                   ",
"                                                          I q 8 S R V a q A                                                     ",
"                                                          / a u ~ Q K h w T                                                     ",
"                                                          / k A ( ] ^ Z i I                                                     ",
"                                                          s 0 d S L I Z y a                                                     ",
"                                                        d M Z ! K Z ! T Z E                                                     ",
"                                                        | I $.=.#.) =.=.~ *.D                                                   ",
"                                                      O.+.) %.=.| [ =.&.| o.+.                                                  ",
"                                                    K ^ [ [ o.o.| X.X.o.) ) _ U                                                 ",
"                                                    s ) E E o.o.^ ^ #.#.Y ] ^ h                                                 ",
"                                                      G ] ( =.=.) | =.=.^ | K                                                   ",
"                                                        a n E ( L T E T n a w                                                   ",
"                                                      l C B P W E T T W Y Y I                                                   ",
"                                                      G ^  .@.$.#.+.o.X.] W Z                                                   ",
"                                                      n B P ( [ .... .( Y v v                                                   ",
"                                                H  ._ U ( } ^ Q } ..` ^ W ~ } @. .W                                             ",
"                                            g L W W P (  .$.$...|  .O.#.$.$.#.#. .` E v a                                       ",
"                                        H ( B B K ~ J Q ~ ] [ ] ( K m N A J K G m B H J ^ X.                                    ",
"                                      T R | O.] ) ` ( ` ( ( Y L S c z k j p j A Y _ } } Q @.=.T                                 ",
"                                  n O.o.G v V L ~ ( E R W Y R Y L L n x S j j U E H L R _ G  .=./                               ",
"                                D %.o.J m O 4 D N H v L n w 0 7 8 0 8 4 9 r C R a j q h ( J m } =.~                             ",
"                              D =. .v x m b B A ] &.S q < 4 s n z A B x g 2 1 9 z 9 , d T A u C | =.U                           ",
"                              *.*.Z n ` ` _ { $.%.C & , y n B V f b z M N b h 7 1 z b V E x K Z P %.*.z                         ",
"                            ..=.Y d T F / $...Y d O y i h x w 1 * 4 ; , y k y x 0 + 8 T h g ( O.U _ *.}                         ",
"                          Y *.^ f j ^ ^ _ Z 8 w w j n n a 2 + ; O 3 @ ; O < r u z y 1 > f l x _ ] Y O.&.M                       ",
"                          @.Y y x R V V d 4 j V n d c t & O & : # < & 4 & & 6 n n j j 4 , 4 e D { T W ` Q                       ",
"                        G ( 2 e U M , 6 0 N M n u 6 : & # : # : & # ; # & < & < t h u x c x w % z W G Q (                       ",
"                        P L s A z , f r A d 8 a 4 2 4 6 3 < 8 9 8 7 8 7 1 7 7 4 4 q f 0 d G a 0 : m J W ^ N                     ",
"                        G s k P ; u j i G d c l d s j z V F G B c x n z j d d l v h G g f H G b a s Y P Q G                     ",
"                      s B A v k : a V c G w P n i U L Y _ $.$.{ +.o.] E W U W ( ! q G N n x l s z i / W R Y                     ",
"                      x L ^ F e 8 b n f l i n S X.&.X.$.$.*.*.*.*.*.$.&.%.*.=.%.#.( k 9 w q 5 z y : w Y S ^                     ",
"                      s S K x & 4 f i w w 9 i B ! *.+.*.=.=.+.#.$.#.#.=.*.$.*.o.#.I L v f N C z n 1 C L H ]                     ",
"                        S d Z 0 < b b B m i L A 0 L Y H L H H Y ~ ] ` / W K G L b e H G A S p v i e G b E '                     ",
"                        K 9 V l $ j V j B t j c s x l l d d a l l M z a z j z d g f f h 9 A g z w u w j ( I                     ",
"                        F i I n @ i a B D d c t : : < - < 3 - < - < < 2 : - 7 % , , y b A A m t 6 J j x o.                      ",
"                          Y G F a < t V I W F V d 8 O & 5 < 3 < - 8 < < < $ 4 7 i c x D b t 4 6 U / B W  .                      ",
"                          R Y L ^ C w 9 7 2 d j x A n b a 3 - , - e , 4 , e M A N n j e @ < l d } ( B `                         ",
"                            ^ S S v a a i a w l i n E E D l e 4 # 9 - 4 y c L c e e , < j 8 u G [ S J J                         ",
"                            n Q k w < c ( Y b 2 , d V n l D V n M l y y d c D 7 @ , f ! _ s S _ U S R                           ",
"                              D Q s z Y Y K } B 0 < , @ - f x V V D M c Z j < < M j n W } Y W P L U                             ",
"                                A ] S P A _  .S f < G N , . % < 5 0 e 8 , & i Y i , w A Y k C W J                               ",
"                                    ` W L [ [ A i 0 c G T M x j t y 5 4 x B R P w 4 4 j k n P B                                 ",
"                                      Y ] Y ( Q S S A J F j N B Z D c j V Q C G A n B A P P                                     ",
"                                          Y _ ` Q W W W K A n i f I / H L L W Q Q / ~ Q c                                       ",
"                                              M L Y W P U W ^ ! ! I Y ! Q Q _ _ U G l                                           ",
"                                                9 z A W ` ` ' ' ' '  .X.@. .` R x 0                                             ",
"                                                        b B H L Y I Y W L V j                                                   ",
"                                                                                                                                ",
"                                                                                                                                ",
"                                                                                                                                "
};
