/* XPM */
static char *_2ff3842a9114d25b4685e0710c26b54cQu1yULrL2aQ3yZS[] = {
/* columns rows colors chars-per-pixel */
"64 64 164 2 ",
"   c #02025C",
".  c #060660",
"X  c #0A0A64",
"o  c #0F0F69",
"O  c #12126C",
"+  c #161670",
"@  c #1C1C76",
"#  c #1E1E78",
"$  c #22227C",
"%  c #2C2C7C",
"&  c #30307D",
"*  c #3F3F79",
"=  c #57577D",
"-  c #272781",
";  c #2A2A84",
":  c #2F2F89",
">  c #3E3E81",
",  c #32328C",
"<  c #363690",
"1  c #3C3C96",
"2  c #3E3E98",
"3  c #545486",
"4  c #5B5B8A",
"5  c #434396",
"6  c #42429C",
"7  c #4D4D9C",
"8  c #55559C",
"9  c #6B6B92",
"0  c #4646A1",
"q  c #4B4BA4",
"w  c #4E4EA8",
"e  c #5252A3",
"r  c #5F5FA5",
"t  c #5353AC",
"y  c #5C5CAB",
"u  c #5656B1",
"i  c #5B5BB5",
"p  c #5E5EB8",
"a  c #6C6CA1",
"s  c #6464AB",
"d  c #6969AC",
"f  c #6464B4",
"g  c #6C6CB3",
"h  c #6363BC",
"j  c #6B6BBD",
"k  c #7272B2",
"l  c #7373BE",
"z  c #7A7AB8",
"x  c #6565C2",
"c  c #6B6BC3",
"v  c #6D6DCA",
"b  c #7474C4",
"n  c #7A7AC3",
"m  c #7373CC",
"M  c #7B7BCC",
"N  c #7777D2",
"B  c #7979D4",
"V  c #7B7BDA",
"C  c #7E7EE4",
"Z  c #888896",
"A  c #8F8F98",
"S  c #9F9F93",
"D  c #9D9D9C",
"F  c #A1A196",
"G  c #8585A3",
"H  c #9E9EA5",
"J  c #9292AA",
"K  c #8585BD",
"L  c #ABABA1",
"P  c #B5B5A3",
"I  c #A8A8B2",
"U  c #C3C393",
"Y  c #D4D4A7",
"T  c #DADAAE",
"R  c #D3D3B2",
"E  c #E2E2A6",
"W  c #EEEEA6",
"Q  c #E0E0B1",
"!  c #FCFCB3",
"~  c #F4F4BB",
"^  c #8383C7",
"/  c #8D8DC2",
"(  c #8383CA",
")  c #8888C9",
"_  c #9090CD",
"`  c #9999C8",
"'  c #8484D4",
"]  c #8B8BD3",
"[  c #8282D9",
"{  c #8B8BDD",
"}  c #9494D4",
"|  c #9C9CD2",
" . c #9393DB",
".. c #9C9CDC",
"X. c #A2A2C5",
"o. c #A1A1D5",
"O. c #ABABD2",
"+. c #A3A3DC",
"@. c #A9A9DB",
"#. c #B6B6DC",
"$. c #8787E5",
"%. c #8E8EE5",
"&. c #8181EC",
"*. c #9595E5",
"=. c #9D9DE3",
"-. c #9595EC",
";. c #9C9CEA",
":. c #8484F4",
">. c #8D8DF3",
",. c #8787FF",
"<. c #8B8BFF",
"1. c #9D9DF1",
"2. c #9595FF",
"3. c #9B9BFF",
"4. c #A3A3E5",
"5. c #ABABE4",
"6. c #A3A3EC",
"7. c #AEAEEE",
"8. c #B4B4E2",
"9. c #B9B9E1",
"0. c #B0B0E9",
"q. c #BCBCEC",
"w. c #A0A0F0",
"e. c #ADADF4",
"r. c #A2A2FF",
"t. c #ABABFF",
"y. c #B3B3F3",
"u. c #BFBFF0",
"i. c #B4B4FE",
"p. c #BCBCFE",
"a. c #BEBEFE",
"s. c #C2C2D3",
"d. c #C3C3DE",
"f. c #DCDCDF",
"g. c #FFFFC0",
"h. c #C5C5E3",
"j. c #CCCCE5",
"k. c #C4C4EA",
"l. c #CCCCEA",
"z. c #D0D0E5",
"x. c #DBDBE3",
"c. c #DDDDE5",
"v. c #D5D5ED",
"b. c #DCDCEC",
"n. c #C3C3F4",
"m. c #CDCDF5",
"M. c #C3C3FE",
"N. c #CACAFC",
"B. c #D3D3F4",
"V. c #DCDCF3",
"C. c #D2D2FD",
"Z. c #DCDCFC",
"A. c #E2E2E4",
"S. c #E5E5EC",
"D. c #ECECED",
"F. c #E3E3F0",
"G. c #E2E2F2",
"H. c #EDEDF4",
"J. c #E3E3FD",
"K. c #ECECFD",
"L. c #F3F3F5",
"P. c #F9F9F7",
"I. c #F4F4FC",
"U. c #FDFDFF",
/* pixels */
"    . .   . .     . .             . .                                                                       .                   ",
". X o .   . O X . . X . . .       X . .     X .   . . o .       X           . .               .           . .     .       .     ",
". X . o . o O o o     O .   . o X o . X . . X .   o X o o         .   X     o X o o     o     . o       X X X   .       . o   . ",
"O O o O + # + o o O O O O O X O O O + + @ O o O + @ O O X o + O o . o . O O + O # # O O O . o # + + . X O O O O # o o O O O O . ",
"@ $ $ $ # # $ $ # @ # + # # # # @ + # # # # # # # # # # @ + # # # @ @ + $ + # # # # @ # # + # # $ # @ @ @ # # # # # + # $ # # + ",
"# $ $ # # $ $ e 5 $ $ # # # # # # # # # # # # # # $ # # # # # # # # $ # # $ # # # # # # $ # # # # $ @ # # # # # # # $ $ # $ $ $ ",
"# # # # # $ $ j b $ $ # # # # # # # # # # # $ # # # # # $ $ # # # $ $ # $ $ # # # # $ # $ , $ # + % 3 * $ # # $ # # $ $ # # # # ",
"# $ # $ $ - $ , 1 @ # # $ # # # # # $ # # # # # # # # # # $ $ $ $ $ $ # $ $ # $ $ $ # $ @ $ # # > P ! Q 9 $ - $ @ $ $ $ # # $ $ ",
"# $ $ $ # $ $ : , # # $ # $ $ $ $ # $ $ # # # # # # $ # # # $ # $ $ $ $ $ $ $ $ $ $ # $ # $ $ % D H Z R E = - $ $ $ $ $ $ $ # # ",
"# $ $ $ # # # $ - $ $ : - $ $ $ - - # # # # - $ $ $ - $ $ $ - - $ $ $ $ $ - - - $ ; $ $ $ $ # 3 4 ; - > Y U * $ $ $ $ $ $ $ # $ ",
"$ $ $ : $ $ $ $ - $ - : : , - $ ; ; $ # - - ; - - ; ; ; - , , - - ; $ ; ; : : : - - $ - $ - $ ; - $ - # A ! J n l 5 $ - - - $ $ ",
"$ $ $ - - $ - - - , , , ; , ; - , ; : ; - - , , < , 1 1 : : < , - - - % - , : - - , : : : , , : , : : - G x.p.i.M.4.g 6 - - $ - ",
"- - , , , , ; ; : : 1 , , , : , , : , < < < 1 < < 1 1 1 1 < 1 1 < < , < 1 1 , , , , , 1 1 , 1 1 1 1 < < j q.=.>.i.i.1.c 1 : - - ",
"2 1 1 2 2 1 1 1 1 1 1 1 1 1 1 1 1 1 1 2 1 1 1 1 2 1 1 1 1 1 2 1 1 2 1 2 1 1 1 1 1 2 1 6 1 6 1 1 1 2 2 < a g.L q p 1.x 2 1 1 1 1 ",
"1 1 1 1 2 1 2 1 1 1 1 1 1 1 1 1 1 1 1 1 1 1 1 1 1 6 2 2 2 2 2 1 2 2 1 1 1 1 2 6 6 1 1 6 2 1 1 1 1 1 1 1 G g.P 1 2 M e 2 1 1 1 1 ",
"f b y 1 2 1 1 1 1 2 1 1 5 1 1 1 1 2 1 2 1 1 1 1 0 b 6 1 1 2 1 1 2 1 1 1 1 6 1 2 1 1 1 q b j 7 1 2 2 2 < H ! S 1 2 w 1 1 1 1 1 1 ",
"p.M.y.' f e 6 2 2 2 2 0 2 2 2 2 6 5 5 2 6 s g 7 7 b 6 1 1 1 1 2 2 1 2 6 6 6 1 1 6 t j 4.M.M.=.q 1 2 1 8 T W 9 2 2 1 1 1 1 1 1 1 ",
"M.M.M.p.M.y.*.m 0 1 2 6 2 2 2 / z.z.#.d / L.P.h.e 6 1 1 1 5 2 0 2 2 2 2 1 1 q c 4.e.i.t.p.M.M...l w r I ~ F 5 1 2 2 2 2 2 1 1 1 ",
"i.p.p.6.-.%.$.v 0 2 1 6 2 1 e F.U.U.U.B.I.U.U.U.h.O.s 6 2 1 2 2 1 6 2 1 q m *.%.*.m x h x n ..4.4.5.d.#.X.e 1 2 2 6 2 2 1 2 1 6 ",
"x c B i 0 6 2 2 2 6 2 2 2 q O.P.U.U.I.Z.U.U.U.U.U.U.x.s 1 2 2 6 2 6 2 2 7 t u 0 2 2 1 1 6 1 6 6 6 y s 7 2 2 2 2 2 6 2 6 2 1 2 2 ",
"1 1 6 1 0 6 2 6 6 6 2 1 7 O.U.U.U.U.U.Z.L.U.U.U.U.L.b.9.8 1 6 6 6 6 6 2 0 2 2 6 6 6 6 2 6 6 0 6 6 2 0 1 1 2 0 0 0 6 6 2 6 6 2 1 ",
"6 6 6 6 0 2 2 6 1 6 k K ` I.U.U.U.U.U.I.b.D.D.P.U.K.K.I.z 1 6 6 0 0 6 0 q q 0 0 0 6 6 0 0 q 6 6 0 6 0 0 2 0 q 0 0 0 0 6 q 6 2 6 ",
"6 q w t i q 0 0 e ` H.U.I.U.U.U.I.I.U.U.J.v.A.L.U.U.U.U.h.s s q w t q q q 0 q 0 0 q 0 q 6 q 6 q q t t e 0 q q w 0 q w t q 6 6 6 ",
"t u i x { i i @.b.I.I.K.U.U.U.I.Z.I.U.I.J.B.f.D.U.U.U.U.U.D.x.s.` / ) h u t i i u t u u u t e t u i i i u u u i t u i i t w q w ",
"i u i i b i i ] 7.} ] 0.J.I.U.K.N.m.+.]  .n.B.A.H.K.K.K.V.k.8.9.8.8.@.h i i i i u i i i v i i i i i i i i i i i i i i i i i i i ",
"i i i i i i i u i t i v 5.M.q.{ m c i u i m ....} M m n b p p p i i h i i i i i i i i f { c i i u i u i u i i u i i i i i u i u ",
"h i i i i i i u i i i i f h h u u i i u i i i i i i u u u i i i i i i i i i i i i i i h ;.B u i i u l #.9.) i i i i u i i i i i ",
"i i i i i i i i i i u i i u i i i i i i i i u i u i i i i i i i i i i u i i i i i i i i m j i u h M m.U.U.G.c p i i i i i i i u ",
"i i i i i i i i i u u u i i i i i i i u i i i u i i i i i i i i i i i i i i i i i i i i i i i  .k.C.U.U.U.D.^ u i p p i i p i i ",
"i i i i i i i i j n | o._ i u i i p i h p i i i u i i i i i i i i i i i i h i i i i i i f i ' K.U.I.U.U.U.S.@.b M i i p p p i i ",
"i i i i i h n M B.L.U.U.I.o.j i i p i i h i i i i u i i i i i i i p i i i p i i i i i u i M Z.U.U.U.U.U.L.c.B.G.K.+.i i i p h i ",
"i i i f @.b.H.C.U.U.U.U.U.U.h.h i p p p p i h h i h h u h i i h i i h i i i h i i i i i u ' I.U.U.U.U.I.V.Z.I.U.U.I.) p p h i u ",
"p p i | I.U.U.K.U.U.U.U.U.U.I.} p i i i i h h x p M x i i p p p p p i i i p p i i i h i j 8.U.I.I.U.U.U.I.U.U.U.U.U.o.x p h p p ",
"u u n H.U.U.U.U.U.U.U.U.U.U.U.j.x h h h h h h h p ' m i h h i i i i p p p p p i i h i i #.U.U.J.H.U.U.U.U.U.U.U.U.U.k.m c x h p ",
"( h +.I.U.U.U.U.U.U.U.U.U.U.L.B...c h v v h h h x h j h p p h p h c h p p h p i h h h ( F.U.U.K.V.D.U.U.U.U.U.U.U.U.S.} B v x c ",
"I.5.u.H.U.I.U.U.U.U.U.U.U.U.P.J.I.+.v m m m x m N m v m x c j v x m m c h h m o.z.b.v.I.U.U.U.P.b.V.U.U.U.U.U.I.H.U.U.I.+.B N N ",
"I.J.Z.B.G.Z.U.U.U.U.U.U.U.U.U.U.U.v.B m N B B B N B m B B ..@.| } ] B B } 8.S.U.U.U.D.H.L.U.L.D.v.B.L.U.U.U.U.H.v.D.U.L.n.[ N N ",
"P.U.U.K.K.B.S.P.U.U.U.U.U.U.U.U.U.U.k.B N B m B N N B B B B =.l.l.8.M { k.V.H.L.P.L.V.m.m.S.b.v.n.p.B.L.U.P.I.B.7.q.z.k. .B B B ",
"U.U.U.U.U.I.Z.G.U.U.U.U.U.U.P.U.U.U.I.5.' B B m N B m B B N B [ [ B B B V { =.=.k.V.p.;.;.y.y.e.6.[ =.k.F.S.z.0.B [ [ B N B B N ",
"U.U.U.U.U.U.I.I.U.U.U.U.U.U.L.U.U.U.U.I.G.4.B B B B B B V N B N B B B B B N N N { 4.{ M B B C B B B B [ 4.5. .B B B B m B N B N ",
"U.I.H.U.U.U.U.U.U.U.U.U.U.P.L.U.U.U.U.U.U.I.4.B B B B B B B C V B B B C B B N B B N N B B B V B B B B B B B B B B B B B V B B B ",
"U.I.S.P.U.U.I.G.L.U.U.U.U.D.U.U.U.U.U.U.U.U.I.k.0.4.B B B C V B B B C V C B B B V B V B B C C B V V V C C V B B B B B %.1.e.e.t.",
"U.U.G.S.P.U.U.Z.v.D.P.L.S.L.U.U.U.U.U.U.U.U.U.U.U.I.7.V V V V B B V C C C C B V B V C B B V V B B V B B B V V V V [ ;.p.p.M.M.M.",
"U.U.I.v.V.P.U.I.C.B.v.B.b.L.U.U.U.U.U.U.U.U.U.U.U.U.I.G.G.B.6.$.C C C :.:.C &.C V C C V B V C C C V B B { t.e.y.y.i.M.M.M.M.M.M.",
"U.U.D.H.I.U.U.U.I.J.C.M.m.A.S.L.U.U.U.U.U.U.U.U.U.U.U.P.H.S.v.4.&.:.&.:.:.:.:.&.C C :.C :.&.C C :.V %.1.y.M.M.M.M.M.M.M.i.p.M.M.",
"I.U.S.I.U.U.U.U.U.U.I.M.M.v.b.A.D.L.U.I.S.S.H.L.S.S.b.v.M.p.p.i.t.r.:.,.,.,.:.:.,.,.,.,.,.,.:.:.<.>.2.t.i.p.p.M.M.M.p.i.i.p.M.M.",
"L.H.C.Z.U.U.U.U.U.U.J.M.M.M.M.m.l.B.B.m.M.M.M.m.M.M.p.i.3.2.<.<.<.<.,.,.,.,.,.,.,.,.,.,.,.,.,.,.,.,.<.<.<.2.t.p.p.i.i.r.3.r.t.p.",
"x.m.M.N.I.U.U.U.U.J.N.M.p.i.3.2.3.t.t.p.M.M.M.M.p.p.r.,.,.<.,.,.,.,.,.,.,.,.,.,.,.,.,.,.,.,.,.,.,.,.,.,.,.<.2.2.3.2.<.<.,.<.2.t.",
"M.M.p.i.C.K.I.I.J.p.i.r.2.<.<.,.,.,.,.<.3.r.3.r.2.<.<.,.,.,.,.,.,.,.,.,.,.,.,.,.,.,.,.,.,.,.,.,.,.,.,.,.,.,.,.,.,.,.,.,.,.,.,.<.",
"2.2.<.<.t.p.C.J.M.3.<.,.,.,.,.,.,.,.,.,.,.,.,.,.,.,.,.,.,.,.,.,.,.,.,.,.,.,.,.,.,.,.,.,.,.,.,.,.,.,.,.,.,.,.,.,.,.,.,.,.,.,.,.,.",
",.,.<.,.<.<.t.t.3.<.,.,.,.,.,.,.,.,.,.,.,.,.,.,.,.,.,.,.,.,.,.,.,.,.,.,.,.,.,.,.,.,.,.,.,.,.,.,.,.,.,.,.,.,.,.,.,.,.,.,.,.,.,.,.",
",.,.,.,.,.,.,.,.<.,.,.,.,.,.,.,.,.,.,.,.,.,.,.,.,.,.,.,.,.,.,.,.,.,.,.,.,.,.,.,.,.,.,.,.,.,.,.,.,.,.,.,.,.,.,.,.,.,.,.,.,.,.,.,.",
",.,.,.,.,.,.,.,.,.,.,.,.,.,.,.,.,.,.,.,.,.,.,.,.,.,.,.,.,.,.,.,.,.,.,.,.,.,.,.,.,.<.,.,.,.,.,.,.,.,.,.,.,.,.,.,.,.,.,.,.,.<.,.,.",
",.,.,.,.,.,.,.,.,.,.,.,.,.,.,.,.,.,.,.,.,.,.,.,.,.,.,.,.<.,.,.,.,.,.,.,.,.,.,.,.,.,.,.,.,.,.,.,.,.,.,.,.,.,.,.,.,.,.,.,.,.,.,.,.",
",.,.,.,.,.,.,.,.,.,.,.,.,.,.,.,.,.,.,.,.,.,.<.,.,.,.,.,.,.,.,.,.,.,.,.,.,.,.,.,.,.,.,.,.,.,.,.,.,.,.,.,.,.,.,.,.,.,.,.,.,.,.,.,.",
",.,.,.,.,.,.,.,.,.,.,.,.,.,.,.,.,.,.,.,.,.,.,.,.,.,.,.,.,.,.,.,.,.,.,.,.,.,.,.,.,.,.,.,.,.,.,.,.,.,.,.,.,.,.,.,.,.,.,.,.,.,.,.,.",
",.,.,.,.,.,.,.,.,.,.,.,.,.,.,.,.,.,.,.,.,.,.,.,.,.,.,.,.,.,.,.,.,.,.,.,.,.,.,.,.,.,.,.,.,.,.,.,.,.,.,.,.,.,.,.,.,.,.,.,.,.,.,.,.",
",.,.,.,.,.,.,.,.,.,.,.,.,.,.,.,.,.,.,.,.,.,.,.,.,.,.,.,.,.,.,.,.,.,.,.,.,.,.,.,.,.,.,.,.,.,.,.,.<.,.,.,.,.,.,.,.,.,.,.,.,.,.,.,.",
",.,.,.,.,.,.,.,.,.,.,.,.,.,.,.,.,.,.,.,.,.,.,.,.,.,.,.,.,.,.,.,.,.,.,.,.,.,.,.,.,.,.,.,.,.,.,.,.,.,.,.,.,.,.,.,.,.,.,.,.,.,.,.,.",
",.,.,.,.,.,.,.,.,.,.,.,.,.,.,.,.,.,.,.,.,.,.,.,.,.,.,.,.,.,.,.,.,.,.,.,.,.,.,.,.,.,.,.,.,.,.,.,.,.,.,.,.,.,.,.,.,.,.,.,.,.,.,.,.",
",.,.,.,.,.,.,.,.,.,.,.,.,.,.,.,.,.,.,.,.,.,.,.,.,.,.,.,.,.,.,.,.,.,.,.,.,.,.,.,.,.,.,.,.,.,.,.,.,.,.,.,.,.,.,.,.,.,.,.,.,.,.,.,.",
",.,.,.,.,.,.,.,.,.,.,.,.,.,.,.,.,.,.,.,.,.,.,.,.,.,.,.,.,.,.,.,.<.,.,.,.,.,.,.,.,.,.,.,.,.,.,.,.,.,.,.,.,.,.,.,.,.,.,.,.,.,.,.,.",
",.,.,.,.,.,.,.,.,.,.,.,.,.,.,.,.,.,.,.,.,.,.,.,.,.,.,.,.,.,.,.,.,.,.,.,.,.,.,.,.,.,.,.,.,.,.,.,.,.,.,.,.,.,.,.,.,.,.,.,.,.,.,.,.",
",.,.,.,.,.,.,.,.,.,.,.,.,.,.,.,.,.,.,.,.,.,.,.,.,.,.,.,.,.,.,.,.,.,.,.,.,.,.,.,.,.,.,.,.,.,.,.,.,.,.,.,.,.,.,.,.,.,.,.,.,.,.,.,."
};
