/* XPM */
static char *_c4851b51dc04867f15a82f9df8866f8sKs2x2tOXNedoP3C[] = {
/* columns rows colors chars-per-pixel */
"64 64 76 1 ",
"  c #00050F",
". c #000612",
"X c #010A16",
"o c #020D1C",
"O c #080F1F",
"+ c #03111D",
"@ c #08101D",
"# c #020E22",
"$ c #010F29",
"% c #021225",
"& c #091422",
"* c #02152C",
"= c #09162A",
"- c #03182E",
"; c #0B1A2B",
": c #011731",
"> c #031B33",
", c #091D35",
"< c #021E3B",
"1 c #091E3A",
"2 c #072037",
"3 c #0A2036",
"4 c #04213D",
"5 c #0A223B",
"6 c #122136",
"7 c #182837",
"8 c #12263D",
"9 c #13283D",
"0 c #011F41",
"q c #032343",
"w c #092542",
"e c #002947",
"r c #0B2945",
"t c #022649",
"y c #032A4D",
"u c #092B4C",
"i c #112A44",
"p c #192E44",
"a c #122E4A",
"s c #02314F",
"d c #1B3045",
"f c #14324E",
"g c #1C354B",
"h c #022E52",
"j c #0A2E51",
"k c #033155",
"l c #0C3255",
"z c #02345B",
"x c #09355A",
"c c #023A5C",
"v c #1C3954",
"b c #023661",
"n c #033A64",
"m c #0A3E65",
"M c #033D6A",
"N c #083E6A",
"B c #113F63",
"V c #294258",
"C c #014165",
"Z c #0C4067",
"A c #03416D",
"S c #09426D",
"D c #04486F",
"F c #124266",
"G c #034572",
"H c #084672",
"J c #024976",
"K c #0A4974",
"L c #024778",
"P c #024C7B",
"I c #134E7A",
"U c #04517E",
"Y c #034F80",
"T c #025383",
"R c #055887",
"E c #065A89",
/* pixels */
". XX+++%%%%%%%**=-**--%-%3%*,%-%**-**--*%---*-**%%%%%**#%oooo...",
"XX@++%%%%%*&**=**---**---%-%%--*-**--%%-****-%=%%*%*%%%##oO+OX..",
"  +X+&%+%**-****-%-,*-2*-%d9*-*-**%%----*--=*-*-**--*%%%#o%%OOo.",
"X++&%7;%*%*%%*=,-%*--;-%-%d9%-=*%32%-;--->->;---==--**%%##oo&&OX",
" XX+o;%+%%==*=:,*>-*,>**,%***>*>*53*-2*-;::*:;**-*;:=*%$&###OOO.",
"X+&+%%%%%*:-;-:;*51->-*,>>**,>->->>----5:****>::>****:$$==$##O#X",
"++;o&+%***,-,,**>,3-*>>>%*>>**%*-**->-,3*,*::>>*:***-:=*=$$&##oo",
"++X+%-%%*****:>*,*-**,5*,*>>*>>>-->-,,>*,:*****:***:=$*:$$###oo#",
"o+++%%*-*>>-->-*>,---->*>--,8>*-->--3*>**--**>*%**:**::*$$=$=##&",
"oo%%%%--->>>,->--,>---*->**-3>*-->*>>->,-->,>%:6*:******,=###=##",
"%%%&*--*>-*->>>,,>-,>-->,*>*>*>*Vg-*-2>,**>,,-1p*::=****$:$6#=o#",
";&-%%%**5,:>->35,->>>-->,*>---,*22->-,35->>->,,>**:**::%$$=i##o#",
"%%%%%**-i5>,,>>2>>-,,>*>>*>->,5>*-2>>**>->>*>>>%*-:*%::*=*$$##$o",
"%%%%**>*52><>>*>,>>>>>>>>*>>>>>*2>>%>,,>>**>*>>,:**>,:,*=$,#$#=o",
"%%******>*>>>>>>>,>>>,,>>>,*,**>*>52<>*>,,>>>**>>---*,::%*,==#$#",
"%%%%**>>>>>>>>>>>,,:-,,>>>>-1:><>252>5>2->,>>,<---***:**>*=$=$##",
"***%:,>:>><<<<<>5>>>44>>:><,><>4w5<244>><>>>><>>>>*>***>*%*%=$$#",
"%***>,>>>><<<<<<>>24>23ra<><4>:244>>>>4<>>>>>>>>>**>>**>*::%:$$$",
"*%*->:><,<<<<<<w<>4>>42rr>>><5<<4>4<<><2><>>>>>>>*>>>->*:****$$$",
"-->,>>>><<<<<><<4>>422<<<>q><4<<>4>444254>><>>>>,>*,>>>*:***$=$$",
">,,>><<,<<<<<<1<w>>44w4<r1w4<>:w<>4>2<4<22>4>>>>>>>*>>>-:**$::$$",
"%>,>><<<<<<4ww444>4>424wr001wr0<44<444<<2>>24>>2>>>:>>>>:::*:=$$",
"*:>*><<<<<<<<54444w4<4<4>0w<qaw>4442242444>44>2>>>>>->>>>**:=:=$",
">:>><,<<<4w40<44<<w44444rww00rq<44<24><2r4>24>><><1,>>>>>>::$:=:",
"::>>><ru<4<w<4<<>4wq4444444444q4<4w444>42:4:>4>>>>>>>>2>*>-:*--=",
"*><44<<<<<>qwrw444444444444444<q><w4<444<>4<2<>>4>>>222>*>>>:::$",
":>,20<><4q<0<44444<444444444444q4<44<444<<>><>4>>>>>>>>>>>>*:::$",
"<<>>><qw<0<w44wt4444444r444444444444444>><4<<><<>>4>4>22*>*>::=:",
"><01w<4q4<44wq4>444e444444444444444><444>4vr4>>24>>4442->>*>-=:$",
"><<<<wqwq4q<q<444224rre4q444eww444444444q>a<<4>422245422>>>--:$:",
"><<<<qwr<qq44wfv24224r9444444e444444444ww>>:>w2<>>22>>>><>:>::::",
"<0w4<<qqq4q<rwwt44e444444qwe444444e44q44<4w<0>4<4422444>>>::::=:",
"<<<4qqqqq<wuqqtqq<000000tt0t0t00q4qqq0ww<4<<<44q4<><4<<<>>>>:1%:",
"<><<qqqqttylutq0ttt0tt0tt0tttttttqqqq00q<qq<0<4q444<4<<><<<:::>*",
"0<0qqqqqytyjytt0tw0y0ttt0tt0tttttwqwwqq<qq4q<<<<<04<>0<<<0>:5:8,",
"<04qqqtyytwttyyhwtt0t0tttt0tt0tttyttttqq<044q<04<<0><0<<><::,>,:",
"<<qqqyyjttyhjyy0tttyttttttthtttttyytqtqq0q4<0<<ww000000w<<0::<**",
"<qqqqqyutyyyjhyjtyyttttttttthhhtyuytqqtqqqqqqq00u0<00<000100:5*:",
"qqqywtttyhyyhjhxyyyythtttttttttttttttqqqqqqqq<0wq00000001<1:::::",
"4qqqyyyyhxkhxhyhhylkthhthhttththttttttttttqq<q0t<0q00wt0000<0:1:",
"qqqtttthzhhhhhhhhklkhhhhhhhhhttthhtyyyytqqqq00000t0qqq0000<<<<::",
"4qqeyhhhhhhzhzhhkkkkhhhhhhhhhhhhytyyyyytyttqttu0t00000tq0010<<::",
"qeyyyyhhhzzzbhzzkkkzhhhhhhhhhhhhhyhyyyyytyttuty00q0000qq00<<1<<:",
"uuyyyyhyhhzzzhhbczkzzzhhhhhhhhhhhhyhhyyyttqty0y0qttt0tq0<w<0:<10",
"tyyyhhhkzzhzzzzzbzzzzzzhzhhzzhhhhhhhyyyyyyyytt0uwt0tttq00q0><:<<",
"qtyhhkxkzzzbbbzzbzzzzzzzhhzhhhzhkkhhkkkhyhytrttttqqqruqq<0ww0<<>",
"ttyjhxkkzzxnbczbbzbzbzzzzzzhzzkkkkkhkhkyyhtyyttttqqtttqqqqw<0<::",
"ytyhhkkbzzmnnzzmbbbbzzzzzzzzzzzzzkkkhkhshyhhyyuyuyrqqqq4q<0<<<<>",
"ythyFkZzznnnNnbnbbMncbbnccbzbbzzzhzhzzzhhhhhyhyyyytttwww44440<:>",
"yykkmkZCbbnnNnnNnMASnnMnbbbbbbbbzzzzzzzhbhhhhhhyhyyytteewq4<<<<:",
"yhyxkkcnnnNNNMNMMMMAMnAAMnnnbnnbbzzzzzzzbhzhhhhhsyyuyetq4q4<101:",
"uyykzczbnnMMMMMMAMMMMMMnAnMMMMnnbbbbzbbbhbhbhzzhkkyuyuyyqqq<0w0<",
"yykkccbnnMMMMMHMMGMMMMGMMMMMMMMMnbbbbbbbbhbzzzzhkshyhyyqft0<0101",
"tyxkzkcAMMMGMLMLGGGGGGGMAAAAAAMMMnbMbbbbbbzbzbzzkkhhhyyyjq0ti0<<",
"hhZkncnAMMHMGLLLGGGGGGHGGGGAGAMMMMMMMMMnnbbbbzbzzzkkhhyytq0ww0<:",
"ttxkcnnCGMMGGGLLLGPPPGLLGGGGGAGMMMMMMMMnMbbbbbbbzzzhkhhyttt0<010",
"yslccnCKMGJGJPPLPPLLPPLLPGGGLGGAMLMGMMMMMMMNnbbbzzzzzhhytt00qq<<",
"eskcccCDGGJLGPPPPPYPPYPPPPPPJLLGMLGGGMGMMAMMNnbnbbbzzhhytttq00<<",
"yykkcnCCAGLLPPPPYYYYYYYYPPPPPPPLLLGGGMGMGMAMMMMbbbbzzhhhytt000<:",
"ssskcCCCAGJJPPPTYYYTYYYYYYUPPPPPYLLGGGGGMGMMNMMnNbbbbhhyytt000<<",
"eyskccCDADJUPPTTTTTTRTTTYYYTUTUUUJJJLGGGGMGHYMNNbbbbzzhhuttw0<<<",
"qescccCCDDJJTPTTTTTRTTTTTTTYUTUUUJUJPLJLGHGHHNNNNbbbzzhjhtt001<:",
"4esscCCDDJJUUUTTTRTRRRRTTTTTUUUUUUUUKULJLHHLNLNNNNbbxxzhuu0w00::",
"eeskccCCDDLUUUTTRTREEERRRRRTRRRRUKUUUUKJKLKKHHNYNNbbblzjyyt010<:"
};
