/* XPM */
static char *_a140be0708a4d049457c9fd0736813cymExD60XLZyt4KLm[] = {
/* columns rows colors chars-per-pixel */
"64 64 256 2 ",
"   c #0D0100",
".  c #140301",
"X  c #1B0400",
"o  c #150A02",
"O  c #1B0B02",
"+  c #19090C",
"@  c #140A09",
"#  c #1A120C",
"$  c #1B1614",
"%  c #170E11",
"&  c #230300",
"*  c #2A0600",
"=  c #220C00",
"-  c #2B0C00",
";  c #230D0B",
":  c #310E03",
">  c #241402",
",  c #2B1301",
"<  c #2D1B02",
"1  c #2B140C",
"2  c #2C1B0C",
"3  c #24170D",
"4  c #331500",
"5  c #3A1601",
"6  c #331C02",
"7  c #3A1B04",
"8  c #331D0C",
"9  c #391A0B",
"0  c #231B14",
"q  c #2C1C15",
"w  c #231C1B",
"e  c #291918",
"r  c #331E13",
"t  c #351B16",
"y  c #2D220E",
"u  c #332202",
"i  c #33220D",
"p  c #3D240C",
"a  c #3B2506",
"s  c #26211C",
"d  c #2C231C",
"f  c #2C2312",
"g  c #342313",
"h  c #3A2415",
"j  c #32231B",
"k  c #3B251A",
"l  c #392A19",
"z  c #2F1E22",
"x  c #2C2522",
"c  c #2A2827",
"v  c #342B24",
"b  c #3B2C22",
"n  c #352A28",
"m  c #3A322B",
"M  c #3A3737",
"N  c #2D2E33",
"B  c #19202A",
"V  c #421C09",
"C  c #462709",
"Z  c #542D06",
"A  c #462B16",
"S  c #4B341C",
"D  c #46311A",
"F  c #593A19",
"G  c #54310F",
"H  c #633C18",
"J  c #643705",
"K  c #42352C",
"L  c #483827",
"P  c #553B27",
"I  c #463C35",
"U  c #4A2F28",
"Y  c #633E2C",
"T  c #67451D",
"R  c #774A19",
"E  c #7E501E",
"W  c #5D442D",
"Q  c #5A4329",
"!  c #48413C",
"~  c #584736",
"^  c #4D402F",
"/  c #6C4C2B",
"(  c #654727",
")  c #744C27",
"_  c #6D512B",
"`  c #73522D",
"'  c #7A5629",
"]  c #674B36",
"[  c #68553A",
"{  c #755B3B",
"}  c #785636",
"|  c #704F3E",
" . c #7F6136",
".. c #323841",
"X. c #433F40",
"o. c #394047",
"O. c #474444",
"+. c #564C44",
"@. c #58524B",
"#. c #454954",
"$. c #695645",
"%. c #7B5E43",
"&. c #775C47",
"*. c #68554A",
"=. c #7C6244",
"-. c #7C634D",
";. c #78664A",
":. c #7D6552",
">. c #786653",
",. c #6D614B",
"<. c #7F7365",
"1. c #835B2C",
"2. c #875828",
"3. c #855C33",
"4. c #895F32",
"5. c #825E3A",
"6. c #885533",
"7. c #905C2F",
"8. c #97672E",
"9. c #8C6234",
"0. c #85623C",
"q. c #8C643B",
"w. c #8D6C3C",
"e. c #856435",
"r. c #936C3C",
"t. c #9B6C3B",
"y. c #976635",
"u. c #9A753A",
"i. c #8C672B",
"p. c #A36E3C",
"a. c #A3723C",
"s. c #AB753B",
"d. c #A47A3C",
"f. c #AB7A3D",
"g. c #A77736",
"h. c #B67A3B",
"j. c #A2762D",
"k. c #84531B",
"l. c #C17D3B",
"z. c #815B4D",
"x. c #8A6642",
"c. c #8E6A44",
"v. c #82644D",
"b. c #866849",
"n. c #936C43",
"m. c #966C46",
"M. c #937343",
"N. c #9C7344",
"B. c #9A764A",
"V. c #836554",
"C. c #886B57",
"Z. c #887259",
"A. c #947353",
"S. c #9D7C54",
"D. c #9D7C5B",
"F. c #96795A",
"G. c #A37443",
"H. c #A47B44",
"J. c #AC7C45",
"K. c #A47B4B",
"L. c #AC7C4B",
"P. c #A77649",
"I. c #B37D44",
"U. c #B37D4B",
"Y. c #B97D44",
"T. c #A57C52",
"R. c #AA7E53",
"E. c #A57D5B",
"W. c #B17E53",
"Q. c #A36D45",
"!. c #8A7666",
"~. c #987B63",
"^. c #8C736A",
"/. c #A37D63",
"(. c #A7813D",
"). c #B7873A",
"_. c #AA822B",
"`. c #9F8159",
"'. c #AC8245",
"]. c #A6824D",
"[. c #AD824B",
"{. c #AD8A4B",
"}. c #A98745",
"|. c #B38245",
" X c #BC8344",
".X c #B4834C",
"XX c #BA854B",
"oX c #B48A4D",
"OX c #BB8B4D",
"+X c #B88A43",
"@X c #A48254",
"#X c #AD8453",
"$X c #AE8A55",
"%X c #A3835C",
"&X c #AB855B",
"*X c #AC8C5B",
"=X c #A78958",
"-X c #B38453",
";X c #BA8552",
":X c #B48A54",
">X c #BB8B53",
",X c #B3865A",
"<X c #B48C5B",
"1X c #BB8C5B",
"2X c #BA855B",
"3X c #B59054",
"4X c #BB9255",
"5X c #B4925B",
"6X c #BC935B",
"7X c #B8914E",
"8X c #9D8368",
"9X c #9A8979",
"0X c #8F877C",
"qX c #A48562",
"wX c #AA8663",
"eX c #AB8A64",
"rX c #A48A6C",
"tX c #AC8D6B",
"yX c #A58767",
"uX c #B38C62",
"iX c #BC8C62",
"pX c #B68969",
"aX c #AD9169",
"sX c #B59362",
"dX c #BC9362",
"fX c #B6936C",
"gX c #BA936B",
"hX c #BB996C",
"jX c #BB9963",
"kX c #A88D73",
"lX c #AB9274",
"zX c #AA937C",
"xX c #B89876",
"cX c #C38649",
"vX c #C18C54",
"bX c #C38E5B",
"nX c #C18654",
"mX c #C29257",
"MX c #C3935B",
"NX c #C29A5C",
"BX c #C9955C",
"VX c #C2904B",
"CX c #C39463",
"ZX c #C29864",
"AX c #C79968",
"SX c #C39C72",
"DX c #CC9766",
"FX c #C8A279",
"GX c #CDA169",
"HX c #B79B85",
"JX c #AC9782",
"KX c #BCA285",
"LX c #BEAA92",
"PX c #C9AA87",
"IX c #C2AD98",
"UX c #D3AA82",
/* pixels */
"p 8 6 a u u u u < a V V 9 < a u h g 8 8 8 8 2 2 r 8 r 9 8 8 8 8 < 8 i i 8 8 i 8 8 8 8 r r 8 r g < u u p V V V V : V a a C u 8 9 ",
"$.&.;.[ [ ;.;.;.v.Z.z.z.v.&.;.[ -.-.-.&.-.&.-.&.&.-.-.-.-.>.:.:.-.=.-.V.v.:.:.V.:.V.:.:.V.V.:.:.Z.;.%.&.z.z.z.z.z.C.;.[ [ ;.C.&.",
"V.:.;.;.;.,.[ ;.-.V.&.&.;.;.;. .{ =.{ =.=.=.%.&.=.=.=.=.=.%.%.v.%.v.{ =.=.{ =.%.%.%.%.z.v.v.v.=.[ { %.v.C.V.V.&.V.$.,.:.-.:.V.C.",
"] ( ~ [ ,.[ [ ,.$.$.] | _ Q _ _ _ _ _ _ _ ` ` ` ` _ / ` ` ` ` / ` ` ' ) ` ) / ) ) / ) ( / / ) / _ ( / | *.Y $.*.-.~ [ ,.[ ] P ] ",
"/ | ] g y ^ m l b A P | { ` ' e.} 1.' ` ` '  .q.' ` ` ' w.w.e.' 4.4.1.4.9.4.3.1.1.3.3.1.R ) ) ' q. .x.z.&.P A m l m m y g [ %.=.",
"lXA.-.S y v s 0 t t ] V.%XfXuXgX5X$X$X].].$X<XdX<X$X#X<XjXjX$XK.:X-X-X:X1XMXCX1X1X1X-XL.G.Q.P.L.K.%XxXxX~.] m t s 0 v y L :.F.KX",
"E.G S U # 0 $ s x v U F } &X].t.-X-X$X[.[.#X:X6XsX<X,X-X#X#XH.u..XL.|..X>X>X;X-X.X.XL.G.G.p.a.N.K.uX%X} P D b x s $ w s L A C A.",
"6.5 C D y v c w e t C * H CXCXJ.-X:X1X1X1X1X1X1X>X:X:X-X.X.X-X[.>X>XOX>X>XmX>X>X.XL.J.J.-X-XU.P.G.ZX,XT V V b w c c c $ A C : 4.",
"7.C & > +.m ! M +.L . : 6.1X1Xp.U.1X-XG.U.<X2X-X#Xa.L.2XL.L.iX1X>X.X.X:X4X1X:X>X>X:X>X1X1X,X>XdXL.J.R.3.- X L ! N o.M ,.> . G r.",
"-X4.` | !.n s $ *.-./ 3.,XCXU.7.G.L.P.a.G.G.p.y.G.7.y.U.;XCXMXL.>X5X-X'.J.$X>X5X#X[.#X<XAXZX<X-X-XP.2XiX} ( !.<.$ s c ^.$.` q.@X",
">X>XeXyX9Xj .   >.kXwX$XCXnXI.t.W.;X;X-XW.P.p.t.y.p.P.W.W.;X-XG.].5X5X[.K.>XdX1X:XH.[.jX<XK.L.ZXU.7.9.<XfXhXKX>.o o $ 9XlXeX:XXX",
"I.OXeXyXkXr   o ;.tX<X#X.X.X2X2X-X;X2X1XbXU.G.P.p.L.1X-XL.L.L.G.G.#X>X<X5X6XdX<X$X,X$XR.<XjXT.4.k.7.a.L.G.eXxXV.o o 2 kXlX<X.X|.",
").OX[.S.yX9 . & ` @X#XJ..X;XMXCX1X1X-X-X1X-X[.>XL..X.XK.[..X[.J.H.}.-X6XjXdX<X:X,XL.:XAXhXK.4.E m.W.W.U.d.$XfXb.X & : rXwX#XOXVX",
"+X XL.T.yXp & & 0.$X'.d..X:XiXCXMXNX4X>X6X>X>X4X.X1X>X.X.XoX.X6X6X:X:X6XZX6X>X<X6X#X-X-Xt.R 4.iXDXW.p.XXOX>X<Xx.* & - /.pX2X+XcX",
").g.[.@X/.V * & n.4X+Xj.J..X1XiX-X4X7X[.oXoX{.oXoXNXNX4X4X[.[.ZXMXMX6X6X1X6X1X1X1X>Xt.R 2.,XCX-XR.P.U.>XI.8.G.B.* * : pXiX;X X).",
").h.>X,XD.5 - & 9.>XOX|.>X:X1X1X'.mX4XoX>X4XoX[.4X:X[.:XGX6X-X1X[.6XMX-X.X:X:X[.y.' 2.L.DX6XL.[.y.Q.J.oXY.s.G.4.& * 5 tX1XXXcX+X",
" XY.I.-XkX2 O o q.>XG..X-X6X:XOXXXXXoXOX>X4X3X3X5X].jXhX=XhXSXSX#XB.jX].P.e.B.) 1.7.R.G.L..X|.DXU.G.H.[.<XJ.{.r.X X 6 eX1XnXXX X",
"Y.f.I.-XtXy o o 0.1XI..X<XjXOXXX.X.X.X>X4X6X3X$XsXjX=XS.fXxXc.x.@XhXsXfX_ 5 ' B.B.q.n.N.-X6Xa.8.Y.J.B.u.K.u.'.w.X O < eXiXU.XXXX",
"XXI.I.,XlX2 o o q.;Xa.J.@X<X|.I..X.X|.oXmXNX4X{.5X{.SXFXc.C * * > T B.c.` 5 x.SXE.m.T.#X,X>XJ.s.OXOXoXB.K.N.{.w.X o < wX2XXXXXXX",
"vXXX X1XlXy o . n.>Xp.a.G.@Xf.f.Y.L..XXX4XmX4X:X6X5XhX} X & A C 4 o F A.tXF G fXwXE.<XiX#XL.;XbXOX4X5X{.3X$X6Xu.X o 8 wXbXXXXXXX",
"vXXXXX1XlXy o . n.;Xa.G.K.$XJ.I.U..X.XOXOXOX4XmX-XGX@X` ( W W ^ [ p > rXzXyX5 ( gXuXR.R.K.P.U.U.XX;X$X].$X<X6Xw.X . < eXiXnXY.XX",
"XXXXY.1XlXy o . } U.a.L.,X5X.X|.-X>X>X>XOXOXVXmX>X:XfXPX8XL 2 y > [ < :.zXKX=.: A.pXR.P.P.p.J.J.vXOX{.M.$X>X6Xw.X o 6 wX2XnXXXXX",
"XXY.|.<XlXy o o ' R.a..X#X5XOXOX>X1X>XvXOXOXOX>XMX<XtX`.S 2 I d   [ ^ <.LX~.~.: G E.<X#XR.G.U.bXnX>X-X].<X<X6Xu.X @ < wX2XnX.XXX",
";XXX X6XlXy o o q.;XJ..X].<X>XBX1X1X1XbXvXvXOXoX6X#X{ ;.>.m d $ $ 0X9X9XzXHXkXG * B.uX,XCXL.W.bXcX>X3X5XAX<X6XB.X O 8 eX2XXXXX+X",
"nX XOX1XlXf o . e.MXI.J.<X#XOXOXCX1XCXCXMXCXMXG.3.0.lXIX<.m w c M +.@.,.+.p 7 : * ) L.P.N.P.1XCXOX>X3X5X<X6X6Xw.X @ < %X2XY.;XOX",
"XXY.OX-XrXf o o } 1XU.L.<X].>XOX1X1X1XZXjXP.9.n.S.=.&.$.*.*.@...m s f L l . . * G e.N.y.y.G.;XCXvXmX5XjX5XjX6XM.X o < qX1XnXXX|.",
"XXY.XX-X8Xy o . 3.CX.XJ.<X#XOX>XCX1XjXT.' M.S._ Q D h l ! @.@.M s   # l D S / n.uXDXCX,X-XW.[.-XnXmX6XjXsXCXNXu.X . , wXbXnX Xf.",
"OXU.cXW.8Xy o o x.DXXX[.<X[.>XOX>X9.H 1.eXD.( Q 6 2 3 0 @ # c ! N d m f S Z.qXSX@X#XL.J.R.L.G.G.vXBX5XjX<X6XNXw.o o , %XW.XX|.f.",
"XXXXvX-X8Xy o . x.DX.X.XdX$XXXJ.R V ) hX8X{ S O g K +.@.! v d x ! ! K 2 Q rXeX$X5X:X.X.X:X-X-X1XbXmX:X5X,X6X4XM.. @ < %XW.Y.U.Y.",
"XXXXnX-X8Xi o o 3.1X.X.XjX<X.Xs.R G.SXxXb.D < m ! M B # v M n 0 K m 2 < b.xXsX$X[..X[.[..XH.G.[.mXmX3X$X#X<X6Xr.. O 6 %XW.U.Y.OX",
"I.Y.nX-X8Xy o o } bX|.L.<X]..X|.FX1XgXxX,.g v ! M M B c ! +.I b d I 2 a F.xXT.#Xu.g.J.J..X#X,X1XmXmX5X5X<X6XNXw.X O , %XW.U.XXOX",
"s.I.vX-X`.g o o n.CX.Xa.K.u..XvXXXDXFXqXW l c N N N c c N 0 d ! o ~ b L rXfX&XsX>XOXf.8.u.H.$XZXmXmX5XjX5XCX6Xr.X @ , %XW.U.XXXX",
"XX.XI..X%X6 + . 5.:X.X>X{.[.U.XXvX>XSXeX~ t c ..B ....M N x n K j I ~ *.[ =.x.sXOXh.h.|.'.K.%XsX1XBX5XsXdXCXNXB.O @ > `.#XU.OXOX",
"-X.X|.[.=X6 + . 5.>X'.}.}.{.U.nX X|.<XE.$.b N ..#...#.#.X.+.O.n f K ! ^ K ,.tXfX2XXXh.Y.>X5X=XS.>XmX6X5XsX6X4Xr.X @ < 8X,X.XoX|.",
";X.XY..X=X6 + . e.1X[.}.u.3X;XnXOXOX<X%X&.U w n N M c c X.I z z x O.@.M o l 8X%X-XcXcXY.XX4X#Xt.:XmX5XjXjX6X4Xw.o . 2 =X,XXX.X+X",
"-XU.Y.oX=X< + . 5.6XoXoX}.3XbXU.|.OX1X&XA.U 1 e d $ c M w w z % m I M c @ q 8XtX-XvXcXcXY.h.f.a.I.OX3X5XjX6X6XM.. O < eX1XOX.X'.",
"-X.XY.-X*X< + . x.CX.X{.}.3X>XU.|.|..X<XwX&.A t > l d $ d $ $ M M O.X.M v # ,.KXuX;XcXcXl.g.s.h.s.I.{.*X5XdX6Xu.o @ < qX,XXXXX|.",
";XU.Y.oX=Xu + . c.6X|.H.u.{..X;XmXoXJ.<XpXE./ C p = > y ; z ..M M m M ! m   f 8XfX,XU.Y.l.l.l.l.Y.OX:X5X6XdX6XM.X @ < qX,X2XoXoX",
";X.XXX-X*Xu + . m.6XJ.'.(.{.W.nXBX>X.X-X2XuXm.) T F a l I I M ..v   # n m b > S rX&XU.nXcXl.l.l.cXMX3X5X<XdX6XB.X @ 2 =X2XOXoX+X",
".XU..XOX*X6 + . c.<XJ.{.{.oX;XnXOX>XMX1XP.W.iXR.q.` / ] I m w   > O [ $.o O   < A.E.pXW.Y.cXcXY.Y.>XoX@X$X-X3Xr.o O < eX,X>X.XoX",
"-X;XOX>X$X6 @ . x.MX>XoX{.7XU.I.>XOX.XXXU.J.U.U.-X<X%XtX9XO + ; , ( kXPX%.= X O ( lXwX@XP.bXBXcXvX'.u.5X<X6X6XM.X . < aX<X;X>XOX",
"U.U.XX>XeX6 + . 5.6X:X3X{.3XI.Q.|..X.X>X;XU.U.U.a.-XB.qXP O % b _ fXpXyXxX} 4 & A 8XlXxXuXAXbXbXvX.X}.*X<X6XNXM.o . < aX<X-XmX7X",
"-X.XY.oX*X6 + . { >X.X3X{.7X'.p.f.f..XOX;XY.I.XXvX>XK.E., , K C.PXR.uXSXT.&XE.C u Q C.F.xXhX,XAXvX>X$X5X5XdXNXM.X . 2 aX2X;X>X7X",
";X.XI.L.=X6 + . 0.>XoX3X{.4X-X.Xd.d.J.XX;X;XY.XXJ.8.<X*X} a C ] &XR.-XDX-XR.<XA.F 6 S A lXtXuXCXbXvX6XjX<XMXNXw.X o u aX<XOXvX7X",
"1XXXI.J.@X< @ . x.6X.XoX{.4XnXBX|.'..XOX;X.XXX>XI.g.<X$XpXY 5 5 F iX<X[.GX.Xu.AXA.F u O { hXSXsXMXvX6XsX<X<X:Xe.O o < aX,XXX>XOX",
"1X.XI.[.@Xu + . 0.>X[.oX{.:XbXDX.X'..X.X.X.X.X>XBXGXoXN.&Xm.H 5 C S.5XoX>XBXZX-XhX%XQ u 6 *XSX1XvXOX{.5X$X[.|.e.X   < eX2X.X>XOX",
"U..XY..X=X< + . 5.>XoX7X{.{.-XCX|.J.J.[.[.L.L..Xd.NXJ.#XR.E.x.V 6 `.*X].vXDXBX6XjXhXA._ , ' dX1XbX'.N.5X:X#X}.w.O   < yX-X.XoXOX",
"f.I..X>XeX9 ; X } 6X3XNX{.'.Y.;XU.).I.|.[.J.J..XJ.oXG.-XL.R.iX5.- =.hXhX6XOXmX7X$X@XhX`.F Z <XMXMXf.u.3X5X$X-XM.X o , yX&X|.oX+X",
").j.oX]./.A & . &.&X}.d.7X).s.Y.Y.I.|.XXOXOX.XY.XXf.f.|.XX;X;X1XC ( FX$XMXoX+X7X).oXjXK.R.C G A.MXOXOX4X{.:X&XA.. ; 1 ~./.>X).+X",
"_.8.-X%X/.t X & { fX5Xu.'.+XcXY.XX|..XXXXXXX.XU.a.s..XvX Xp.8.t.` S eXfX<X{.OXf.|.(.d.K.SXC . H #X>XOXf.H.jXfXC.& X e ~.lX<X(.).",
"{.}.5XA.V.t t t ] A.@X{.L.U.2XP.2X;X-X:X2X,X;X-X1X-XL.L.G.N.P.$X} - { FX5XsXCX'.:X[.,X$XhXF D D.&XdX<Xu.].*Xb.Q t q t C.D.gX7X+X",
"u.].m.S t 1 t 1 O a _ @X<XR.pX,X&XE.R.&X$XuXuX<XT.B.P.&XiXuXT.A.5 . A eXE.gXhX$XdX@XhX%X} Q Z.rXeXfX*X<X*X .C , q x ; t D A.$X[.",
"`.yXv.t 1 ; 1 @ O > F A.D.A./.~.E.D.D.D.yXqXyXeXE.D.D.qXqXx.( C ] P [ kXF.rXD.D.wXF.tXF.b.Z.JX~.zXlXqXeXD.F O O O $ + + r v.eX<X",
"6 u 1 ; z z z n y y u p 6 V U 5 9 5 6 6 6 7 6 6 , 6 7 7 6 p C A l D l D 8 7 - 6 4 6 4 < l D l g 9 9 7 p A a u l v e v e ; 8 5 5 ",
"g r r z b z e e f l 1 4 * t U 9 r 8 8 8 9 r 8 8 8 8 h r 1 < 1 2 > y 3 2 1 r t k k k r 1 y > O 2 t t r 4 > < i 2 0 + n n v t 8 9 ",
"1 g e 3 e z e e y y 1 A t ; t t r 8 2 r r g g 8 r 2 8 2 g h h 8 y 2 2 g 1 r t ; t ; j k > y b y q ; t A u i l y f 0 x 0 ; t t 9 ",
". . .   .   1 o     >   . . e . .   . > O   . o O = . O . o . O o >     1   ; . . . . . = O O     ; . . 8         o #   o & . & ",
"1 1 I ^.>.r   = h Z.$.] , & + Y >.~ 2   O A ^.>.h   > g >.>.P o 6 o [ !.[ k . 1 U ^.^.k . O O >.9XP k . . ] Z.&.l o   ^ <.>.Y : ",
". P zXP &.C.- = 8X~.W &.~ . C.HX] :.V.X A rX&.] ~.Q = 8X:.] !.W . [ lXW &.^.- A HX&.$.~.P . ~.KXW &.| - ] lX( [ ,.u O zXV.Y z.Y ",
"A W zXC _ ] ` C PXA ( v.v.- rX&.C ` A.S P xXS / Q b.- xX( A ` A.C b.D.C } { | A KXF P A.b.5 PXT C C.z.5 Y A.V } {  .a lXG Y z./.",
"5.T c.@X@XT FXH q.pXuXF wXc.F UXfXc.` %X/ q.wXfX5.wX} ` uXeX` n.r.F B.fX0.} gXZ c.qXPXT m.T A.hXhXw.x.c.H W./.b.` =XT  .m.SX) 6.",
"sXw.' 2.2.t.L.,X9.n.) 3.$X&Xu.' y.) 9.K.N.e.N.R G.T.[.2.4.' 9.4.N.9.3.q.) N.B.$X1.e.w.r.#XR.q.r.1.e.r.@X6.Y Q.Q.n.w.5X' ) 2.Q.DX",
"{.g.d.u.f.Y.V Q.bXW.9.<Xi.Z NX(.a.u.a.Z 2.>X-X1X6Xk.Z [.t.t.-XJ E #Xy.G.1XH.V G.-X-XG.<XJ 2.GX#X3X4XJ J bXP.9.R.y.Z J.-XcXQ.nXY.",
"d.{.g.7Xp.s.h.U.W.W.#X#X}.i._.u.d.XXJ.s.J..XXXJ.I.8.k.p.a.I.p.8.t.G.-X>Xu.J.u.8.d.oX[..XJ.-Xu.[.(.d.J.a.W.m.Q.t.t.G.>XI.nXnXY.nX"
};
