/* XPM */
static char *_140ecd560cb4292c5dd0b103da34112x3eyqlch12GhuFM8[] = {
/* columns rows colors chars-per-pixel */
"64 64 219 2 ",
"   c None",
".  c #1E1914",
"X  c #1B1712",
"o  c #211C16",
"O  c #251D1A",
"+  c #281F1C",
"@  c #2A211E",
"#  c #3E291E",
"$  c #2E2421",
"%  c #332623",
"&  c #342924",
"*  c #3A2C26",
"=  c #3E322A",
"-  c #422A1D",
";  c #432C23",
":  c #44352D",
">  c #4C3529",
",  c #4D3B2D",
"<  c #493126",
"1  c #533C2D",
"2  c #523629",
"3  c #4C3C32",
"4  c #433B35",
"5  c #573E30",
"6  c #59412E",
"7  c #4D4037",
"8  c #554233",
"9  c #5A4434",
"0  c #5C4936",
"q  c #5C4638",
"w  c #56493C",
"e  c #5C4B3B",
"r  c #624C3A",
"t  c #654B3A",
"y  c #63523E",
"u  c #69523F",
"i  c #544B42",
"p  c #5B5349",
"a  c #5E5B55",
"s  c #634F41",
"d  c #645443",
"f  c #6A5442",
"g  c #655A4B",
"h  c #6C5C4C",
"j  c #685747",
"k  c #725946",
"l  c #725D4C",
"z  c #715748",
"x  c #685E54",
"c  c #725F52",
"v  c #78634D",
"b  c #6D6152",
"n  c #6B645A",
"m  c #66645D",
"M  c #746454",
"N  c #7B6654",
"B  c #746659",
"V  c #746A5A",
"C  c #7B6C5C",
"Z  c #7D6A56",
"A  c #776957",
"S  c #6B6A64",
"D  c #786E64",
"F  c #7D7364",
"G  c #75736B",
"H  c #7C7B75",
"J  c #767772",
"K  c #836C5B",
"L  c #85725E",
"P  c #8B755D",
"I  c #837364",
"U  c #8B7662",
"Y  c #8C7A66",
"T  c #847B6C",
"R  c #8B7C6B",
"E  c #817769",
"W  c #927D65",
"Q  c #917E69",
"!  c #887E71",
"~  c #7E807A",
"^  c #97836E",
"/  c #8B8273",
"(  c #83847D",
")  c #8C8679",
"_  c #8B8578",
"`  c #948473",
"'  c #9A8673",
"]  c #938779",
"[  c #948A7B",
"{  c #9B8B7B",
"}  c #998A75",
"|  c #9A927F",
" . c #A28D75",
".. c #A5927C",
"X. c #8A8C86",
"o. c #868781",
"O. c #948E82",
"+. c #8F928C",
"@. c #9C9283",
"#. c #92938C",
"$. c #9B9689",
"%. c #9D988B",
"&. c #969286",
"*. c #9B9B95",
"=. c #9B9E99",
"-. c #969893",
";. c #A49584",
":. c #AC9A85",
">. c #A39B8C",
",. c #AC9D8B",
"<. c #A59786",
"1. c #A99E91",
"2. c #B29D89",
"3. c #9FA39E",
"4. c #ACA18E",
"5. c #B2A18C",
"6. c #BDA88F",
"7. c #A5A193",
"8. c #ACA394",
"9. c #A8A59B",
"0. c #B3A592",
"q. c #B4AB9C",
"w. c #BBAC9C",
"e. c #B6A796",
"r. c #BAB19F",
"t. c #A4A7A1",
"y. c #A6AAA5",
"u. c #A9ABA6",
"i. c #AAADAA",
"p. c #B2ADA1",
"a. c #BAAEA2",
"s. c #AEB0AC",
"d. c #B5B1A3",
"f. c #BEB4A4",
"g. c #B2B3AE",
"h. c #BCB6AA",
"j. c #BDB9AC",
"k. c #B3B5B3",
"l. c #B6B9B5",
"z. c #BCBBB3",
"x. c #BABDBB",
"c. c #B6B9B8",
"v. c #C0B29D",
"b. c #C1AD98",
"n. c #C1B4A4",
"m. c #C3B6AA",
"M. c #C4BAAC",
"N. c #C9BCAD",
"B. c #CBBAA3",
"V. c #C3BEB2",
"C. c #C9BEB3",
"Z. c #BEC0BD",
"A. c #C5C1B6",
"S. c #CCC2B4",
"D. c #C2C3BC",
"F. c #CCC5BA",
"G. c #CCC9BE",
"H. c #D3C5B4",
"J. c #D0C7BB",
"K. c #D4CABC",
"L. c #DBCDBD",
"P. c #D6C9B6",
"I. c #CFC0A8",
"U. c #E0CEBA",
"Y. c #BFC3C5",
"T. c #C3C5C2",
"R. c #CACAC4",
"E. c #CCCECB",
"W. c #C6C8C7",
"Q. c #D3CDC3",
"!. c #D9CEC3",
"~. c #D1CFC9",
"^. c #CFD1CE",
"/. c #D5D0C5",
"(. c #DBD2C5",
"). c #D4D3CC",
"_. c #DBD5CB",
"`. c #DFDACF",
"'. c #CBCFD1",
"]. c #CED2D3",
"[. c #D3D5D3",
"{. c #D7D8D6",
"}. c #DCDAD4",
"|. c #D2D6D9",
" X c #D6D9DB",
".X c #DBDCDC",
"XX c #D9D7D0",
"oX c #E2D4C5",
"OX c #E3DACD",
"+X c #E5D9CC",
"@X c #E3DDD3",
"#X c #E9DED3",
"$X c #E2DED9",
"%X c #E7E1D6",
"&X c #EBE2D6",
"*X c #E5E1DB",
"=X c #EBE4DB",
"-X c #EEE8DE",
";X c #F4E7DB",
":X c #F2E9DD",
">X c #F5E7D7",
",X c #DCDEE1",
"<X c #D7DBE0",
"1X c #DEE0E3",
"2X c #DEE1E8",
"3X c #E2E2E3",
"4X c #EAE6E1",
"5X c #EEEAE5",
"6X c #EBEBEB",
"7X c #E4E5E9",
"8X c #F1EBE4",
"9X c #F1EDEA",
"0X c #F3EFEA",
"qX c #F8ECE2",
"wX c #F5F1EC",
"eX c #F8F3EE",
"rX c #F7F4F1",
"tX c #F9F6F2",
"yX c #FCF9F5",
/* pixels */
"                                                                                                                                ",
"                                                                                                                                ",
"                                              S.A.L.OX!.F.S.p.d.`.}.L.h.>.                                                      ",
"                                            %XM.f.}.@X@X_.K.A.A.A.A.j.q.>.] )                                                   ",
"                                            #X`./.G._.}._._.).~.F.Z.j.h.d.9.7.%.4.|                                             ",
"                                        (.@XXX@X@X`.@X*X4X4X@X}._.G.A.j.h.9.&.) / Y ;.                                          ",
"                                      =X*X=X-X%X4X8X9X5X6X=X%X@XXX(.G.F.V.u.%._ / >.G.                                          ",
"                                      -X=X%X6XwXwXeXrXwX9X5X*X$X$X}.).~.A.d.7.) _ 7.0.4.                                        ",
"                                    &X=X:X8XrXrXyXyXtX0X0X5X-X%X@X}.XXG.S.d.7.| _ ~ k u e                                       ",
"                                  =X-X-X8X8XwXtXyXrX0X0X9X4X3X`.XX`./.A.Z.d.7._ V d 0 Z b                                       ",
"                                5X5X8X8X(.}.wXeXwX8X6X6X9X-X}.XX/.).~.A.Z.p.$./ b y v | F }                                     ",
"                                5X4X#XS.N.=X9XwX9X5X5X4X-X.XXX/.G.G.A.j.d.>.} F g y ~ | M }                                     ",
"                                %XK.r.n.}.5X-XtXtXwXwX9X5X*X$XXX/.A.Z.Z.f.7.$./ d y ~ ^ y ^ y                                   ",
"                              %X+XN.h.@X%X9X8XrXtXtXwX5X4X*X}.XX).~.G.G.A.8.$./ b e A ~ d / g                                   ",
"                              8XOXd.(.%X*XwXwXyXyXwXwX5X*X}._._.).XXXX).G.d.7.| b w g C b / h y                                 ",
"                            5X8X(.e.OX%XwXwXwXyXyXwX5X$X@X@X_._.).}.}.G.d.7.%.[ V y 0 g A ~ v y                                 ",
"                          _.}.;XL.,._.qXeXwXwXwX0X-X%XXX`._.K.G.G.G.A.8.%.| / ~ V g 0 y b C b y                                 ",
"                          h.@X;XB...L.eXrX9X8XOXS.f.0.0.Z.I.r.Z.Z.Z.>.C V A h b V p 0 8 d b V e e                               ",
"                            #XP. .^ I.qXwX%X(.K.H.I.@.P P } 4.r.0./ y 1 y ~ / V b 0 0 6 y C / g d                               ",
"                            z.;.v ^ I.+X8X`.S.P.r.5.{ P L } q.j.| v 1 , g / / b g 0 0 0 , C } b b g                             ",
"                            `.m.4.5.B.(.5X_.r.4.4.....Y U >.C.#XS.~ 6 6 b ~ b 0 8 0 y 0 6 F | y B                               ",
"                            Q.P.6.6.I.OX0X@Xj.0.e.0.4. .' M.#X;X(./ y y ~ [ / v 0 g A g d / ~ # V                               ",
"                            ~.C.b.U.P.&XrX0X-X%X@XJ.C.B.M.+X>X;XOX..Z / | 7.| / ~ | [ b g h < 7 d                               ",
"                            OXL.U.+X(.-XrXyXyXwX%X_.!.(.+X>X>X>XOX..~ / | 7.4.| 4.4.| A 6 0 8 > ,                               ",
"                            #XoX>X+X+X&XwXyXyXwX-XOXOX=X;X;X;X>XoXr.Z ~ ..r.q.q.d.4._ b 6 b h > ,                               ",
"                            _.F.(.U.OX&X8X0XeXwX8X%X+XoX+X;X!.N.5.^ 0 ~ ..B.r.r.r.%./ y 6 h g 7 >                               ",
"                            !.J.L.L.=XOX%X-X:X8XqX$XP.6.J.Q l Q Z 6 # 6 A q.r.7.;.) B y 6 7 6 6                                 ",
"                            (.$X@X-X8X&X_.#X%X=X#X(.5.m.(.2.>.1.~ 6 # , d | 4.| ` F g w 9 < 8 y                                 ",
"                              4X%XOX&X-XOXOX%X#X(.w.0.#X;X>X*X_.j.$.T C / ^ } } R M y 8 8 6 f N                                 ",
"                              /.Q.OX&X&X%X%X=X@XC.,.oXqX;X+X(._.).F.h.7.| | / ^ I h t f j f 0 u                                 ",
"                              }.-X_.(.@X`.=X-X(.0.N.:X=X#XC.,.8.8.0.4.>.| ..Z P I C f v M A > 1                                 ",
"                                %XOX:X=X@X%X%XG.N.&X#X!.a.R q 1 q s h L } } v C T I y h C f #                                   ",
"                                =X%X:X=X=X*X_.(.;X&XC.>.h 2 e K ! ! c q N Y Y R E C j B C 5 -                                   ",
"                                =X;X=X#X#X4X4X4X8XoX:.N < C 4.n.w.2.' f z ' w.Q c D I I ! c 6                                   ",
"                              5X-X-XP.+X_.=X8X>X&XH.Q t c a.K.J.m.a.e.] ! a.w.Y j c ! D D B r                                   ",
"                              OX%Xv.0.OX!.@X:X+X+Xb.Q j a.+X+XoXK.!.F.w.:.m.4.C c c ] C 2 s q                                   ",
"                                S.} m.%XL.K.#XP.C.5.U Q !.+XoXH.C.K.N.2.;.n.<.R I j ] f , 2 e                                   ",
"                                q.;.(.OX!.!.#XK.B.<.U 0.#X+XL.n.n.C.6.0. .a.N.<.c j d 5 0 8 r                                   ",
"                                  h.`.%X!.(._.J.n.0.{ J.#XoXK.n.n.!.N.2.U p.2.z q s z g 8 e e                                   ",
"                                    (.@X@XQ.J.N.e.0.<.(.=X_.M.,.n.b.e.Q c ;.L q h ! _ g q e                                     ",
"                                    !.Q.A.S.G.!.C.b. .C.+X!.m.<.0.N.a.R z I K c I O.! c g B                                     ",
"                                    !.n.M.A.!.(.!.b.:.K.J.v.1.@.n.0.L f t c E c c X.E s d g                                     ",
"                                    A.7.C.K.K.(.C.n.b.@XK.w.,.8.e.U l c c C K z j 1.B 2 , q                                     ",
"                                  R.z.{ h.m.A.H.J.J.N.!.J.2.;.,.Q U K c z I K q c R s < ;                                       ",
"                            Z.W.E.XX~.>.f.f.A.S.!.#XC.J.1.] e.2.U ' z z z Q Q 5 c z 5 ; ;                                       ",
"                    k.Z.T.W.^.[..X$X3X~.A.J.P.C.+X#Xm.!.a.&.h...K Q K Q { m.1.s c t > < @ O                                     ",
"                Z.Z.D.W.^.].[.{.$X$X4X.X[.V.f.F.#X!.a.+Xa.9.H. .t ] ,.n.C.C.a.K t 2 < % O O . X X                               ",
"              W.T.T.W.R.E.[.{.}..X$X*X*X.X).g.D.oXe.m.m.] a.H.W 5 ;.n.e.Q.C.9.E 5 5 : * $ O O X . . o                           ",
"              D.D.T.R.E.^.].{.}..X*X$X*X*X[.W.W.K.M.n.[ 1.S.0.K z n.C.N.M.;.L s 8 w 4 * $ @ @ . o . + $                         ",
"              D.Z.D.R.D.T.R.^.[.}.*X*X*X*X{.^.^.G.,.I } 0.U K U K P.C.N.a.K > 5 9 w 3 * $ @ @ O o o $ *                         ",
"              E.R.R.R.R.D.R.W.^.{.*X5X4X3X2X,X].<.x N 2.P z ' t t e.v.{ { N ; y 0 8 = & $ @ @ . o O $ 4                         ",
"            ^.[.[.[.^.).^.R.D.^.{..X4X6X6X6X7X Xc.$.{ 0.Y Q U u 2 <.C.;.a.Y < y 8 3 = $ $ . O . O & = i                         ",
"            {.{. X{.XX].).~.R.[.[.{..X3X6X6X7X,X|.z.a.a.1.a.[ W s m.C.2.w.k 6 8 3 : % $ + O . O & = i m                         ",
"            {.{. X{.}.}.[.{.[.[.[.{. X X,X3X3X3X<X[.T.1.8.q.' I s ! 2.2.v q 8 3 = & @ + + O @ = i m m J                         ",
"            .X.X{.}.}.}.}..X}.{.{.[.[.{.{.{..X.X X[.E.k.*.@.I C h h P U r 3 , * % @ + O O $ 4 p m J J ~                         ",
"            3X.X}..X3X1X1X1X,X.X.X X[.[.].[.[.{.|.|.'.x.=.( ! _ F c h d i 3 : % $ + + $ = i m S J ~ o.X.                        ",
"            3X,X,X1X3X3X7X3X.X}..X,X.X.X].[.[.[.].|.'.T.i.-.9.$._ D x x g 7 4 * % & * 7 g S J J o.X.+.+.                        ",
"            3X3X1X*X3X*X3X1X,X.X,X,X,X,X,X,X X[.|.[.E.Y.k.y.s.t.#.! H H G x q 3 7 i p m G H ~ X.+.-.=.=.                        ",
"            7X3X1X*X1X,X3X.X,X.X,X,X1X1X1X1X.X X X[.E.D.k.k.T.x.t.*.#.$.o.D S n m S J H o.X.#.-.=.3.3.=.                        ",
"            7X3X1X1X1X,X,X,X,X1X1X<X|.|.1X,X X X[.[.E.T.c.c.W.W.x.l.i.t.1.&.( ( ( ( o.X.+.*.=.=.3.y.i.t.                        ",
"          ,X7X2X,X,X.X X,X,X,X,X1X X1X1X<X<X].|.[.^.T.T.c.x.'.].E.T.k.k.i.t.=.=.=.-.-.-.=.t.y.y.y.i.i.y.-.                      ",
"          ,X2X2X3X,X X X}..X.X.X X X|.1X<X|.|.|.^.C.V.Z.x.Y.|.<X'.W.V.x.c.i.i.i.y.i.y.t.y.i.k.k.k.s.s.i.t.                      ",
"          ,X,X,X,X,X,X<X,X.X.X X|. X|.<X X|.].].^.h.h.z.c.W.<X<X|.'.T.T.x.x.x.c.k.k.k.i.k.k.l.c.c.l.k.k.y.                      ",
"          ,X2X,X,X,X,X,X,X,X.X X|.1X X<X<X].|.|.^.V.A.z.g.'.<X,X|.'.T.x.x.x.Y.x.x.c.l.k.c.c.c.x.x.l.l.k.i.                      "
};
